<svg width="255" height="160" viewBox="0 0 255 160" fill="none" xmlns="http://www.w3.org/2000/svg">
<path d="M185 32C191.627 32 197 37.3726 197 44V114C197 120.627 191.627 126 185 126H81C74.3726 126 69 120.627 69 114V44C69 37.3726 74.3726 32 81 32H185ZM81 36C76.5817 36 73 39.5817 73 44V114C73 118.418 76.5817 122 81 122H185C189.418 122 193 118.418 193 114V44C193 39.5817 189.418 36 185 36H81ZM182.062 44.8291C182.709 44.3117 183.653 44.416 184.171 45.0625C184.688 45.7092 184.584 46.6533 183.938 47.1709L144.292 78.8867L183.941 110.832C184.586 111.352 184.688 112.296 184.168 112.941C183.648 113.586 182.704 113.688 182.059 113.168L141.893 80.8057L133.938 87.1709C133.39 87.6092 132.61 87.6092 132.062 87.1709L124.106 80.8057L83.9414 113.168C83.2964 113.688 82.3518 113.586 81.832 112.941C81.3123 112.296 81.4137 111.352 82.0586 110.832L121.707 78.8867L82.0625 47.1709C81.416 46.6533 81.3117 45.7092 81.8291 45.0625C82.3467 44.416 83.2908 44.3117 83.9375 44.8291L133 84.0791L182.062 44.8291ZM55.5 63C56.3284 63 57 63.6716 57 64.5C57 65.3284 56.3284 66 55.5 66H40.5C39.6716 66 39 65.3284 39 64.5C39 63.6716 39.6716 63 40.5 63H55.5ZM55.5 51C56.3284 51 57 51.6716 57 52.5C57 53.3284 56.3284 54 55.5 54H29.5C28.6716 54 28 53.3284 28 52.5C28 51.6716 28.6716 51 29.5 51H55.5ZM55.5 39C56.3284 39 57 39.6716 57 40.5C57 41.3284 56.3284 42 55.5 42H18.5C17.6716 42 17 41.3284 17 40.5C17 39.6716 17.6716 39 18.5 39H55.5Z" fill="#1F1E1E"/>
<rect x="157" y="90" width="56" height="56" rx="28" fill="#FFD900" stroke="#FFD900" stroke-width="4" stroke-linejoin="round"/>
<path d="M173 119.2L180.504 127.201C180.907 127.63 181.591 127.62 181.981 127.18L199 108" stroke="#1F1E1E" stroke-width="4" stroke-linecap="round" stroke-linejoin="round"/>
</svg>
