<svg width="72" height="72" viewBox="0 0 72 72" fill="none" xmlns="http://www.w3.org/2000/svg">
<path d="M39 4C40.1046 4 41 4.89543 41 6V24C41 25.1046 40.1046 26 39 26H11C9.89543 26 9 25.1046 9 24V6C9 4.89543 9.89543 4 11 4H39ZM13 22H20.4043C19.8987 21.3497 19.482 20.6858 19.1484 20.0225C18.1994 19.9979 17.353 19.8525 16.6104 19.5234C15.462 19.0145 14.8175 18.1912 14.3936 17.4062C13.7065 16.1341 13.6083 15.4174 13 14.582V22ZM30.8564 14.9707C30.6894 15.1094 30.4956 15.3137 30.2334 15.6201C30.0138 15.8767 29.6675 16.3024 29.3623 16.6357C28.7886 17.2623 27.6467 18.4062 25.9414 18.334C24.4345 18.2701 23.1868 17.2893 22.0977 15.9912C22.1447 17.2819 22.8971 19.4404 25.4678 21.4141C25.6825 21.579 25.8541 21.7792 25.9814 22H37V20.2197C35.6654 20.3357 34.5427 20.2603 33.6318 19.9092C32.9067 19.6296 32.31 19.1747 31.8906 18.5498C31.4936 17.9579 31.3417 17.3399 31.2715 16.8652C31.2045 16.4123 31.1943 15.9369 31.1836 15.6494C31.1707 15.3042 31.1556 15.1117 31.126 14.9668C31.1205 14.9399 31.1128 14.9198 31.1084 14.9043C31.0896 14.8944 31.0635 14.8791 31.0254 14.8643C31.0202 14.8622 31.0151 14.86 31.0107 14.8584C30.9794 14.8767 30.9285 14.9109 30.8564 14.9707ZM13 10.5449C13.7101 10.2629 14.5505 10.4018 15.1338 10.9688C16.9557 12.7401 17.6379 14.9946 17.9131 15.5049C17.9898 15.647 18.0468 15.7275 18.0957 15.7773C18.099 15.5251 18.1148 15.2785 18.1436 15.0391C18.2975 13.7561 18.9252 12.0882 20.5488 11.4707C22.3817 10.774 23.9746 11.9108 24.9258 13.1299C25.5093 13.8777 25.8817 14.1681 26.0557 14.2783C26.1311 14.2165 26.2492 14.1125 26.4121 13.9346C26.663 13.6606 26.859 13.4113 27.1943 13.0195C27.4871 12.6775 27.8621 12.2582 28.3027 11.8926C28.7486 11.5226 29.3407 11.1391 30.0889 10.9561C30.8713 10.7647 31.6811 10.8273 32.4746 11.1357C33.2028 11.4189 33.8166 11.8498 34.2754 12.4404C34.7251 13.0196 34.9373 13.6386 35.0449 14.165C35.1481 14.6698 35.1681 15.1641 35.1807 15.501C35.1937 15.851 35.2028 16.0501 35.2227 16.2168C35.4847 16.2702 36.0193 16.3103 37 16.1992V8H13V10.5449Z" fill="currentColor"/>
<path fill-rule="evenodd" clip-rule="evenodd" d="M65 9.99902C65.8317 9.99902 66.5699 10.5138 66.8652 11.2793L66.9189 11.4355L71.9189 28.4365C72.0964 29.0408 71.9788 29.6939 71.6016 30.1982C71.2239 30.7027 70.6302 31.001 70 31.001H63V66.001H65C66.1046 66.001 67 66.8964 67 68.001C66.9995 69.1051 66.1042 70.001 65 70.001H57C55.8958 70.001 55.0005 69.1051 55 68.001C55 66.8964 55.8954 66.001 57 66.001H59V31.001H52C51.3698 31.001 50.7761 30.7027 50.3984 30.1982C50.0212 29.6939 49.9036 29.0408 50.0811 28.4365L55.0811 11.4355C55.3314 10.5844 56.1128 9.99902 57 9.99902H65ZM40 39C44.9706 39 49 43.0294 49 48V48.4023C51.3303 49.226 53 51.4482 53 54.0605V68C53 69.1046 52.1046 70 51 70H2C0.895432 70 0 69.1046 0 68V55C0 52.3876 1.66968 50.1655 4 49.3418V48C4 43.0294 8.02944 39 13 39H40ZM6 53C4.89543 53 4 53.8954 4 55V66H8V55C8 53.8954 7.10457 53 6 53ZM12 62.123V66H41V62.123H12ZM47 52.0605C45.8955 52.0605 45.0001 52.956 45 54.0605V66H49V54.0605C48.9999 52.956 48.1045 52.0605 47 52.0605ZM13 43C10.2386 43 8 45.2386 8 48V49.3418C10.3303 50.1655 12 52.3876 12 55V58.123H41V54.0605C41 51.4482 42.6697 49.226 45 48.4023V48C45 45.2386 42.7614 43 40 43H13ZM58.4971 14L54.6729 27.001H67.3271L63.5029 14H58.4971Z" fill="currentColor"/>
</svg>
