<svg width="72" height="72" viewBox="0 0 72 72" fill="none" xmlns="http://www.w3.org/2000/svg">
<path d="M32.9707 0.285156C33.6486 -0.122041 34.5103 -0.0931475 35.1621 0.37207L63.1621 20.3721C63.6876 20.7474 63.9999 21.3542 64 22V58.5C64 58.5225 63.9968 58.5451 63.9961 58.5674L66.0049 60.5762C68.3478 62.9192 68.3477 66.7184 66.0049 69.0615C63.6618 71.4045 59.8627 71.4045 57.5195 69.0615L50.4141 61.9561C50.2804 61.9842 50.1421 62 50 62H6C4.89546 62 4.00004 61.1045 4 60V22C4.00008 21.3542 4.31237 20.7474 4.83789 20.3721L32.8379 0.37207L32.9707 0.285156ZM37.0781 42.9629L60.3477 66.2324C61.1287 67.0135 62.3957 67.0135 63.1768 66.2324C63.9571 65.4513 63.9575 64.1851 63.1768 63.4043L39.9062 40.1338L37.0781 42.9629ZM8 23.0293V58H46.458L34.249 45.791L34.1201 45.9199C33.5065 46.5333 32.5945 46.663 31.8525 46.3125L31.6602 46.3955C30.7984 46.7648 30.1591 47.5163 29.9316 48.4258L29.5039 50.1328C29.416 50.4845 29.2339 50.8062 28.9775 51.0625L25.3779 54.6621C24.5969 55.4431 23.3309 55.4431 22.5498 54.6621L13.293 45.4053C12.5121 44.6242 12.512 43.3581 13.293 42.5771L16.8926 38.9775C17.1489 38.7212 17.4706 38.5391 17.8223 38.4512L19.5303 38.0234C20.4395 37.7959 21.1903 37.1573 21.5596 36.2959L21.6426 36.1025C21.2922 35.3606 21.4218 34.4485 22.0352 33.835L30.7783 25.0918C31.5594 24.3114 32.8256 24.3111 33.6064 25.0918L33.7344 25.2207L36.4346 22.5205C40.9079 18.0476 48.1606 18.0484 52.6338 22.5215C53.1029 22.9907 53.3091 23.6629 53.1836 24.3145C53.0579 24.9658 52.6166 25.5121 52.0068 25.7734L49.0566 27.0381C46.4842 28.1406 44.1451 29.7241 42.166 31.7031L41.1914 32.6777L42.8633 34.3486C43.6442 35.1296 43.6441 36.3967 42.8633 37.1777L42.7344 37.3057L60 54.5713V23.0293L34 4.45801L8 23.0293ZM24.5186 39.1475C23.5606 40.505 22.1428 41.4946 20.5 41.9053L19.3291 42.1982L17.5352 43.9912L23.9639 50.4199L25.7568 48.626L26.0498 47.4551C26.4605 45.8123 27.45 44.3935 28.8076 43.4355L24.5186 39.1475ZM26.2773 35.249L32.7061 41.6777L38.6201 35.7627L32.1924 29.335L26.2773 35.249ZM46.9863 23.5801C44.3716 22.6716 41.3524 23.2611 39.2637 25.3496L36.5635 28.0488L38.3633 29.8496L39.3379 28.875C41.5494 26.6636 44.1406 24.8703 46.9863 23.5801Z" fill="currentColor"/>
</svg>
