<svg width="80" height="80" viewBox="0 0 80 80" fill="none" xmlns="http://www.w3.org/2000/svg">
<path fill-rule="evenodd" clip-rule="evenodd" d="M47.8076 7.00978C48.3689 6.95553 48.9272 7.14054 49.3447 7.51955C49.762 7.8986 50 8.43623 50 9.00002V10H63C64.1045 10 64.9998 10.8956 65 12V69H72C73.1045 69 73.9998 69.8956 74 71C74 72.1046 73.1046 73 72 73H50V74C50 74.5638 49.7621 75.1014 49.3447 75.4805C48.9272 75.8595 48.3689 76.0445 47.8076 75.9902L16.9082 73H8C6.89546 73 6 72.1046 6 71C6.00016 69.8956 6.89556 69 8 69H14.9238V12C14.924 10.907 15.801 10.0193 16.8896 10.001L47.8076 7.00978ZM18.9238 13.8223V69.1768L46 71.7969V11.2022L18.9238 13.8223ZM50 16H57C58.1045 16 58.9998 16.8956 59 18V65C59 66.1046 58.1046 67 57 67H50V69H61V14H50V16ZM50 63H55V20H50V63ZM41.1807 40C42.5613 40.0001 43.6807 41.1194 43.6807 42.5C43.6807 43.8806 42.5613 44.9999 41.1807 45C39.8 45 38.6807 43.8807 38.6807 42.5C38.6807 41.1193 39.8 40 41.1807 40Z" fill="currentColor"/>
</svg>
