<svg width="80" height="80" viewBox="0 0 80 80" fill="none" xmlns="http://www.w3.org/2000/svg">
<path fill-rule="evenodd" clip-rule="evenodd" d="M72.6826 8.49493C73.5137 7.76776 74.7775 7.85158 75.5049 8.68243C76.2321 9.51356 76.1483 10.7773 75.3174 11.5047L70.7324 15.5164C68.9963 17.0355 68 19.2311 68 21.5379V57.9998C67.9997 62.4179 64.4181 65.9998 60 65.9998H58.9268C59.6078 67.1767 60 68.5422 60 69.9998C59.9998 74.4179 56.4182 77.9998 52 77.9998C47.5818 77.9998 44.0002 74.4179 44 69.9998C44 68.5422 44.3922 67.1767 45.0732 65.9998H24.9268C25.6078 67.1767 26 68.5422 26 69.9998C25.9998 74.4179 22.4182 77.9998 18 77.9998C13.5818 77.9998 10.0002 74.4179 10 69.9998C10 68.5422 10.3922 67.1767 11.0732 65.9998H6C4.89559 65.9998 4.00026 65.1042 4 63.9998C4.00008 62.8953 4.89548 61.9998 6 61.9998H10V40.9998C10 39.8952 10.8954 38.9998 12 38.9998H20V17.9998C20 16.616 20.9263 15.6993 21.6289 15.201C22.3834 14.6658 23.3457 14.2653 24.3545 13.9627C26.3976 13.3498 29.1001 12.9998 32 12.9998C34.8999 12.9998 37.6024 13.3498 39.6455 13.9627C40.6543 14.2653 41.6166 14.6658 42.3711 15.201C43.0737 15.6993 44 16.616 44 17.9998V26.9998H64V21.5379C64 18.0777 65.4936 14.7853 68.0977 12.5066L72.6826 8.49493ZM18 65.9998C15.7909 65.9998 14 67.7907 14 69.9998C14.0002 72.2088 15.791 73.9998 18 73.9998C20.209 73.9998 21.9998 72.2088 22 69.9998C22 67.7907 20.2091 65.9998 18 65.9998ZM52 65.9998C49.7909 65.9998 48 67.7907 48 69.9998C48.0002 72.2088 49.791 73.9998 52 73.9998C54.209 73.9998 55.9998 72.2088 56 69.9998C56 67.7907 54.2091 65.9998 52 65.9998ZM14 61.9998H32V42.9998H14V61.9998ZM36 61.9998H60C62.209 61.9998 63.9997 60.2087 64 57.9998V30.9998H57V40.4998C56.9998 41.6042 56.1045 42.4998 55 42.4998H46C44.8955 42.4998 44.0002 41.6042 44 40.4998V30.9998H36V61.9998ZM39.6455 22.0369C37.6024 22.6498 34.8998 22.9998 32 22.9998C29.1002 22.9998 26.3976 22.6498 24.3545 22.0369C24.2355 22.0012 24.1174 21.9631 24 21.9246V38.9998H32V28.9998C32 27.8952 32.8954 26.9998 34 26.9998H40V21.9246C39.8826 21.9631 39.7645 22.0012 39.6455 22.0369ZM48 38.4998H53V30.9998H48V38.4998ZM32 16.9998C29.3773 16.9998 27.0801 17.321 25.5039 17.7938C25.2761 17.8621 25.0724 17.9321 24.8916 17.9998C25.0724 18.0675 25.2761 18.1375 25.5039 18.2059C27.0801 18.6787 29.3774 18.9998 32 18.9998C34.6226 18.9998 36.9199 18.6787 38.4961 18.2059C38.7239 18.1375 38.9276 18.0675 39.1084 17.9998C38.9276 17.9321 38.7239 17.8621 38.4961 17.7938C36.9199 17.321 34.6227 16.9998 32 16.9998Z" fill="currentColor"/>
</svg>
