<svg width="32" height="32" viewBox="0 0 32 32" fill="none" xmlns="http://www.w3.org/2000/svg">
<path d="M27 21C26.9999 21.7956 26.652 22.5585 26.0332 23.1211C25.4144 23.6836 24.5753 24 23.7002 24H8.2998C7.42473 24 6.58561 23.6836 5.9668 23.1211C5.34799 22.5585 5.00007 21.7956 5 21V10.2598L14.5479 18.1797C14.9505 18.4976 15.4667 18.672 16 18.6699C16.5399 18.6689 17.0606 18.4875 17.4629 18.1602L27 10.2598V21ZM24.7998 8C25.2434 8.00005 25.677 8.12174 26.043 8.34961L16.7588 16.0596C16.5568 16.2253 16.2946 16.3173 16.0225 16.3174C15.7502 16.3174 15.4873 16.2254 15.2852 16.0596L5.95703 8.34961C6.32302 8.12175 6.7566 8.00005 7.2002 8H24.7998Z" fill="#1F1E1E"/>
</svg>
