<svg width="24" height="24" viewBox="0 0 24 24" fill="none" xmlns="http://www.w3.org/2000/svg">
<path fill-rule="evenodd" clip-rule="evenodd" d="M12.2149 21.9429C10.2521 21.9429 9.33999 21.6551 7.75453 20.504C6.75166 21.799 3.57594 22.8111 3.43743 21.0796C3.43743 19.7798 3.1509 18.6815 2.82616 17.4824C2.43935 16.0051 2 14.36 2 11.9763C2 6.28308 6.65138 2 12.1623 2C17.6781 2 21.9999 6.49411 21.9999 12.029C22.0184 17.4783 17.6406 21.9139 12.2149 21.9429ZM12.2961 6.92097C9.61221 6.78189 7.52051 8.64765 7.05729 11.5734C6.67525 13.9955 7.35338 16.9452 7.93121 17.0987C8.20819 17.1658 8.90543 16.5999 9.33999 16.1634C10.0586 16.662 10.8954 16.9614 11.766 17.0315C14.5469 17.1659 16.9231 15.0396 17.1098 12.2497C17.2185 9.45383 15.0773 7.08578 12.2961 6.92578V6.92097Z" fill="#1F1E1E"/>
</svg>
