<svg width="32" height="32" viewBox="0 0 32 32" fill="none" xmlns="http://www.w3.org/2000/svg">
<path fill-rule="evenodd" clip-rule="evenodd" d="M24.9853 19.8145C24.4932 19.5757 22.0739 18.4218 21.6228 18.2624C21.1718 18.1032 20.8438 18.0238 20.5157 18.5012C20.1877 18.9787 19.2447 20.0533 18.9576 20.3717C18.6706 20.6901 18.3835 20.73 17.8915 20.4911C17.3994 20.2524 15.8138 19.7487 13.9343 18.1233C12.4716 16.8584 11.4839 15.2962 11.1969 14.8186C10.9099 14.3411 11.1663 14.0829 11.4126 13.8451C11.6341 13.6313 11.9048 13.2879 12.1507 13.0093C12.3969 12.7308 12.4788 12.5317 12.6428 12.2135C12.8068 11.895 12.7249 11.6165 12.6017 11.3778C12.4788 11.139 11.4947 8.79088 11.0847 7.83556C10.6852 6.90549 10.2796 7.03146 9.97751 7.0167C9.69083 7.00292 9.36236 7 9.03443 7C8.70642 7 8.17323 7.11938 7.72216 7.59681C7.27117 8.07439 6 9.22862 6 11.5765C6 13.9247 7.76318 16.193 8.00923 16.5114C8.25527 16.8299 11.479 21.6482 16.4154 23.7145C17.5893 24.2061 18.506 24.4996 19.2206 24.7194C20.3993 25.0826 21.472 25.0313 22.32 24.9085C23.2654 24.7716 25.2312 23.7545 25.6414 22.6403C26.0513 21.5258 26.0513 20.5707 25.9284 20.3717C25.8054 20.1727 25.4774 20.0533 24.9853 19.8145Z" fill="#1F1E1E"/>
</svg>
