<svg width="24" height="24" viewBox="0 0 24 24" fill="none" xmlns="http://www.w3.org/2000/svg">
<path d="M20.9736 16.605L20.1561 20.1486C20.0413 20.6495 19.6009 21 19.0852 21C10.2147 20.9993 3 13.7856 3 4.91613C3 4.40076 3.35051 3.95992 3.85156 3.84567L7.39565 3.02833C7.91179 2.90873 8.43919 3.17661 8.65366 3.66533L10.2893 7.47959C10.4805 7.92886 10.3515 8.45231 9.97355 8.76097L8.08056 10.2807C9.27528 12.7141 11.2541 14.6926 13.6885 15.8878L15.2383 13.9965C15.5438 13.6176 16.0713 13.4864 16.5206 13.681L20.3354 15.316C20.7943 15.5574 21.0931 16.0917 20.9736 16.605Z" fill="#1F1E1E"/>
</svg>
