<svg width="24" height="24" viewBox="0 0 24 24" fill="none" xmlns="http://www.w3.org/2000/svg">
<path d="M20.9402 4.63864L17.7711 19.9134C17.532 20.9915 16.9085 21.2597 16.0225 20.752L11.1939 17.1153L8.86409 19.4056C8.60634 19.6691 8.39063 19.8896 7.89371 19.8896L8.24058 14.8633L17.1898 6.59827C17.5789 6.24376 17.1055 6.04728 16.5851 6.40184L5.52162 13.5217L0.75867 11.9981C-0.277363 11.6675 -0.29608 10.9392 0.974286 10.4314L19.6041 3.09585C20.4666 2.76527 21.2214 3.29224 20.9402 4.63864Z" fill="#1F1E1E"/>
<path d="M19.7861 3.56055C20.0949 3.44323 20.2705 3.51547 20.3496 3.59375C20.4401 3.68351 20.5744 3.94573 20.4512 4.53613L20.4502 4.53711L17.2812 19.8115C17.1745 20.2875 17.0143 20.4342 16.9277 20.4746C16.8488 20.5112 16.6622 20.5365 16.292 20.3291L11.4951 16.7158L11.1504 16.457L10.8438 16.7588L8.51367 19.0488L8.50684 19.0557C8.48637 19.0766 8.46613 19.0953 8.44824 19.1133L8.72461 15.0957L17.5283 6.96484C17.6589 6.84526 17.8227 6.64977 17.832 6.38574C17.8439 6.04684 17.6079 5.84061 17.3994 5.76465C17.2104 5.69583 17.009 5.70705 16.8408 5.74609C16.6668 5.78653 16.487 5.86564 16.3145 5.98145L5.44824 12.9736L0.911133 11.5215C0.695745 11.4527 0.577307 11.3769 0.523438 11.3252C0.517612 11.3196 0.513496 11.3137 0.509766 11.3096C0.521771 11.2902 0.546004 11.2579 0.59375 11.2148C0.69656 11.1222 0.876696 11.0088 1.16016 10.8955L1.15918 10.8945L19.7871 3.56152L19.7861 3.56055Z" stroke="#1F1E1E" stroke-opacity="0.2"/>
</svg>
