<svg width="20" height="12" viewBox="0 0 20 12" fill="none" xmlns="http://www.w3.org/2000/svg">
<mask id="path-1-inside-1_2743_4306" fill="white">
<path fill-rule="evenodd" clip-rule="evenodd" d="M19.5292 0.833333C19.6775 0.363333 19.5292 0.0216665 18.8729 0.0216665H16.6909C16.1404 0.0216665 15.8863 0.320833 15.7379 0.640833C15.7379 0.640833 14.6154 3.37417 13.0479 5.14625C12.5396 5.65875 12.3067 5.82958 12.0313 5.82958C11.8829 5.82958 11.6921 5.65875 11.6921 5.18917V0.81125C11.6921 0.25625 11.5229 0 11.0567 0H7.62501C7.28584 0 7.07418 0.25625 7.07418 0.5125C7.07418 1.04625 7.85793 1.17458 7.94251 2.66917V5.91667C7.94251 6.62125 7.81751 6.75 7.54001 6.75C6.79876 6.75 4.99834 3.99542 3.91834 0.856667C3.70834 0.235 3.495 0 2.94417 0H0.741251C0.105834 0 0 0.29875 0 0.619167C0 1.19583 0.741251 4.09958 3.4525 7.94292C5.25292 10.5679 7.81584 11.9788 10.1246 11.9788C11.5229 11.9788 11.6921 11.6583 11.6921 11.1246V9.13875C11.6921 8.49833 11.8192 8.39167 12.2642 8.39167C12.5817 8.39167 13.1538 8.56208 14.4459 9.82208C15.9284 11.3167 16.1825 12 17.0088 12H19.1904C19.8259 12 20.1225 11.6796 19.9529 11.0604C19.7625 10.4413 19.0421 9.54458 18.11 8.47708C17.6017 7.87958 16.8392 7.2175 16.6063 6.89708C16.2888 6.47 16.3734 6.29917 16.6063 5.915C16.585 5.915 19.2542 2.11417 19.5292 0.831667"/>
</mask>
<path fill-rule="evenodd" clip-rule="evenodd" d="M19.5292 0.833333C19.6775 0.363333 19.5292 0.0216665 18.8729 0.0216665H16.6909C16.1404 0.0216665 15.8863 0.320833 15.7379 0.640833C15.7379 0.640833 14.6154 3.37417 13.0479 5.14625C12.5396 5.65875 12.3067 5.82958 12.0313 5.82958C11.8829 5.82958 11.6921 5.65875 11.6921 5.18917V0.81125C11.6921 0.25625 11.5229 0 11.0567 0H7.62501C7.28584 0 7.07418 0.25625 7.07418 0.5125C7.07418 1.04625 7.85793 1.17458 7.94251 2.66917V5.91667C7.94251 6.62125 7.81751 6.75 7.54001 6.75C6.79876 6.75 4.99834 3.99542 3.91834 0.856667C3.70834 0.235 3.495 0 2.94417 0H0.741251C0.105834 0 0 0.29875 0 0.619167C0 1.19583 0.741251 4.09958 3.4525 7.94292C5.25292 10.5679 7.81584 11.9788 10.1246 11.9788C11.5229 11.9788 11.6921 11.6583 11.6921 11.1246V9.13875C11.6921 8.49833 11.8192 8.39167 12.2642 8.39167C12.5817 8.39167 13.1538 8.56208 14.4459 9.82208C15.9284 11.3167 16.1825 12 17.0088 12H19.1904C19.8259 12 20.1225 11.6796 19.9529 11.0604C19.7625 10.4413 19.0421 9.54458 18.11 8.47708C17.6017 7.87958 16.8392 7.2175 16.6063 6.89708C16.2888 6.47 16.3734 6.29917 16.6063 5.915C16.585 5.915 19.2542 2.11417 19.5292 0.831667" fill="#1F1E1E"/>
<path d="M15.7379 0.640833L14.8307 0.220277L14.8213 0.240415L14.8129 0.260948L15.7379 0.640833ZM13.0479 5.14625L13.7579 5.85047L13.778 5.83019L13.797 5.8088L13.0479 5.14625ZM7.94251 2.66917H8.94251V2.64089L8.94091 2.61266L7.94251 2.66917ZM3.91834 0.856667L2.97092 1.17671L2.97275 1.18203L3.91834 0.856667ZM3.4525 7.94292L4.27724 7.37725L4.26964 7.36647L3.4525 7.94292ZM14.4459 9.82208L15.1558 9.11785L15.15 9.11195L15.144 9.10614L14.4459 9.82208ZM19.9529 11.0604L20.9174 10.7963L20.9133 10.7813L20.9088 10.7665L19.9529 11.0604ZM18.11 8.47708L17.3483 9.12513L17.3568 9.1348L18.11 8.47708ZM16.6063 6.89708L17.4152 6.30907L17.4088 6.30047L16.6063 6.89708ZM16.6063 5.915L17.4614 6.43345L18.382 4.915H16.6063V5.915ZM19.5292 0.833333L20.4828 1.1343C20.5914 0.790325 20.6892 0.204166 20.3229 -0.3209C19.9452 -0.862396 19.3299 -0.978333 18.8729 -0.978333V0.0216665V1.02167C18.9571 1.02167 18.9611 1.03354 18.9187 1.01747C18.8666 0.99772 18.7658 0.942589 18.6826 0.823399C18.6012 0.706721 18.5839 0.596155 18.5821 0.541849C18.5805 0.49463 18.5897 0.487499 18.5756 0.532363L19.5292 0.833333ZM18.8729 0.0216665V-0.978333H16.6909V0.0216665V1.02167H18.8729V0.0216665ZM16.6909 0.0216665V-0.978333C16.2204 -0.978333 15.8009 -0.845349 15.4581 -0.584611C15.1311 -0.3358 14.9436 -0.0234501 14.8307 0.220277L15.7379 0.640833L16.6452 1.06139C16.662 1.02515 16.6741 1.00631 16.6799 0.998437C16.6848 0.991689 16.6817 0.997489 16.6691 1.00711C16.663 1.01176 16.6562 1.01612 16.6492 1.01977C16.6422 1.02343 16.637 1.02534 16.6347 1.02607C16.6292 1.02781 16.6446 1.02167 16.6909 1.02167V0.0216665ZM15.7379 0.640833C14.8129 0.260948 14.8129 0.26084 14.813 0.260742C14.813 0.260723 14.813 0.260635 14.813 0.260597C14.8131 0.260521 14.8131 0.260487 14.8131 0.260493C14.8131 0.260505 14.813 0.260681 14.8129 0.261019C14.8126 0.261694 14.812 0.263016 14.8112 0.264972C14.8096 0.268883 14.8069 0.275325 14.8032 0.284185C14.7957 0.301908 14.7841 0.329291 14.7685 0.36544C14.7373 0.437767 14.6902 0.545009 14.6285 0.680041C14.5049 0.950502 14.3239 1.3303 14.096 1.76301C13.6339 2.64041 13.005 3.68551 12.2989 4.4837L13.0479 5.14625L13.797 5.8088C14.6584 4.8349 15.3745 3.6273 15.8655 2.69501C16.1142 2.22287 16.3117 1.80859 16.4476 1.51117C16.5157 1.36226 16.5685 1.24212 16.6048 1.15804C16.6229 1.11599 16.6369 1.08292 16.6467 1.05974C16.6516 1.04815 16.6554 1.03903 16.6581 1.03248C16.6595 1.02921 16.6606 1.02659 16.6614 1.02462C16.6618 1.02364 16.6621 1.02282 16.6624 1.02217C16.6625 1.02185 16.6626 1.02156 16.6627 1.02132C16.6628 1.0212 16.6628 1.02105 16.6629 1.02099C16.6629 1.02085 16.663 1.02072 15.7379 0.640833ZM13.0479 5.14625L12.3379 4.44203C12.2167 4.56429 12.1214 4.65641 12.0434 4.72679C11.9646 4.79793 11.9158 4.83551 11.8879 4.85455C11.8618 4.87245 11.8693 4.86334 11.9039 4.85122C11.9443 4.83707 11.9901 4.82958 12.0313 4.82958V5.82958V6.82958C12.4195 6.82958 12.7399 6.69479 13.0166 6.50566C13.2597 6.33947 13.5042 6.10629 13.7579 5.85047L13.0479 5.14625ZM12.0313 5.82958V4.82958C12.3619 4.82958 12.5648 5.01855 12.6432 5.13853C12.7167 5.251 12.6921 5.30162 12.6921 5.18917H11.6921H10.6921C10.6921 5.5463 10.7629 5.91713 10.9689 6.23241C11.1798 6.5552 11.5523 6.82958 12.0313 6.82958V5.82958ZM11.6921 5.18917H12.6921V0.81125H11.6921H10.6921V5.18917H11.6921ZM11.6921 0.81125H12.6921C12.6921 0.477844 12.6509 -0.0022244 12.3478 -0.404394C11.9919 -0.876599 11.474 -1 11.0567 -1V0V1C11.0865 1 11.0499 1.00475 10.98 0.976696C10.8986 0.943998 10.8139 0.883363 10.7507 0.799394C10.6941 0.724289 10.6822 0.667216 10.6831 0.671489C10.6845 0.677528 10.6921 0.718205 10.6921 0.81125H11.6921ZM11.0567 0V-1H7.62501V0V1H11.0567V0ZM7.62501 0V-1C6.72588 -1 6.07418 -0.288324 6.07418 0.5125H7.07418H8.07418C8.07418 0.800824 7.84581 1 7.62501 1V0ZM7.07418 0.5125H6.07418C6.07418 0.923054 6.23603 1.22746 6.36998 1.42524C6.43151 1.51609 6.49829 1.60015 6.54274 1.65627C6.59351 1.72037 6.62995 1.76623 6.66625 1.81643C6.77192 1.96258 6.91364 2.18732 6.94411 2.72567L7.94251 2.66917L8.94091 2.61266C8.8868 1.65643 8.59435 1.06971 8.287 0.644609C8.22004 0.552 8.15455 0.470062 8.1105 0.414452C8.06013 0.350864 8.03921 0.323313 8.02594 0.303722C8.01029 0.280611 8.07418 0.368822 8.07418 0.5125H7.07418ZM7.94251 2.66917H6.94251V5.91667H7.94251H8.94251V2.66917H7.94251ZM7.94251 5.91667H6.94251C6.94251 6.06869 6.93542 6.15614 6.92891 6.20117C6.92151 6.25246 6.92103 6.20331 6.96847 6.11679C7.02957 6.00536 7.14233 5.88303 7.30595 5.80861C7.37607 5.77671 7.43634 5.76261 7.47576 5.75617C7.51383 5.74995 7.53804 5.75 7.54001 5.75V6.75V7.75C7.67362 7.75 7.8969 7.73698 8.13399 7.62914C8.3991 7.50856 8.59514 7.31 8.72217 7.07832C8.92492 6.70853 8.94251 6.25868 8.94251 5.91667H7.94251ZM7.54001 6.75V5.75C7.73618 5.75 7.8261 5.83045 7.77025 5.79324C7.73326 5.76861 7.65598 5.70655 7.54066 5.58432C7.31213 5.34208 7.02312 4.95902 6.70345 4.44916C6.06787 3.43545 5.38014 2.03155 4.86393 0.531302L3.91834 0.856667L2.97275 1.18203C3.53654 2.82053 4.28902 4.3633 5.00896 5.51157C5.36705 6.0827 5.73464 6.58446 6.0859 6.95679C6.26049 7.14184 6.45392 7.31951 6.66149 7.45778C6.85019 7.58347 7.15853 7.75 7.54001 7.75V6.75ZM3.91834 0.856667L4.86574 0.536631C4.7525 0.201402 4.582 -0.222759 4.23584 -0.540981C3.83888 -0.905904 3.36718 -1 2.94417 -1V0V1C3.01447 1 3.02341 1.00799 2.9987 1.0002C2.98497 0.995875 2.96489 0.987952 2.94181 0.974724C2.91855 0.961391 2.89837 0.946181 2.88229 0.931397C2.85091 0.902551 2.85062 0.889678 2.87185 0.929646C2.89442 0.972144 2.92712 1.047 2.97093 1.1767L3.91834 0.856667ZM2.94417 0V-1H0.741251V0V1H2.94417V0ZM0.741251 0V-1C0.291675 -1 -0.226419 -0.896337 -0.602549 -0.488757C-0.968634 -0.0920594 -1 0.382121 -1 0.619167H0H1C1 0.588341 1.00328 0.605988 0.991486 0.649418C0.977701 0.70016 0.943413 0.785065 0.867236 0.867611C0.702878 1.04571 0.55541 1 0.741251 1V0ZM0 0.619167H-1C-1 0.902583 -0.923108 1.2988 -0.807101 1.72751C-0.683217 2.18534 -0.491844 2.762 -0.215704 3.43543C0.337024 4.7834 1.23641 6.53627 2.63537 8.51936L3.4525 7.94292L4.26964 7.36647C2.95735 5.50623 2.13048 3.88556 1.63477 2.67665C1.38669 2.07165 1.2233 1.57404 1.12347 1.20512C1.07348 1.0204 1.04085 0.873166 1.02135 0.764723C0.999973 0.645928 1 0.604503 1 0.619167H0ZM3.4525 7.94292L2.62784 8.50854C4.57191 11.343 7.41705 12.9788 10.1246 12.9788V11.9788V10.9788C8.21464 10.9788 5.93394 9.79286 4.27717 7.3773L3.4525 7.94292ZM10.1246 11.9788V12.9788C10.8264 12.9788 11.5002 12.9134 11.993 12.5802C12.6397 12.1427 12.6921 11.4782 12.6921 11.1246H11.6921H10.6921C10.6921 11.2201 10.6819 11.2032 10.7026 11.1455C10.7153 11.1101 10.7372 11.0652 10.7722 11.0197C10.8073 10.974 10.8442 10.9426 10.8725 10.9235C10.921 10.8907 10.9176 10.9117 10.7817 10.9363C10.6499 10.9601 10.4421 10.9788 10.1246 10.9788V11.9788ZM11.6921 11.1246H12.6921V9.13875H11.6921H10.6921V11.1246H11.6921ZM11.6921 9.13875H12.6921C12.6921 9.07424 12.6937 9.02599 12.6961 8.99028C12.6973 8.97278 12.6986 8.95976 12.6997 8.95056C12.7002 8.94603 12.7007 8.94268 12.7011 8.94039C12.7014 8.93811 12.7016 8.93706 12.7016 8.93714C12.7016 8.93721 12.7013 8.93858 12.7007 8.94111C12.7001 8.94364 12.6992 8.9475 12.6978 8.95254C12.695 8.9625 12.6901 8.97808 12.682 8.99786C12.6656 9.03816 12.6359 9.09636 12.5849 9.15864C12.5325 9.22272 12.4696 9.27619 12.4022 9.31665C12.3373 9.3556 12.281 9.37484 12.2464 9.38412C12.1914 9.39889 12.1769 9.39167 12.2642 9.39167V8.39167V7.39167C12.0562 7.39167 11.4503 7.38746 11.0376 7.89146C10.8486 8.12222 10.7722 8.3758 10.7362 8.56655C10.7004 8.7568 10.6921 8.9555 10.6921 9.13875H11.6921ZM12.2642 8.39167V9.39167C12.1544 9.39167 12.4736 9.29552 13.7477 10.538L14.4459 9.82208L15.144 9.10614C13.834 7.82864 13.009 7.39167 12.2642 7.39167V8.39167ZM14.4459 9.82208L13.7359 10.5263C14.0893 10.8826 14.3702 11.1912 14.6101 11.4595C14.8402 11.7168 15.0625 11.9717 15.2608 12.1731C15.4626 12.378 15.7013 12.5935 15.996 12.7514C16.3134 12.9214 16.648 13 17.0088 13V12V11C16.9564 11 16.9494 10.9932 16.9404 10.9884C16.9088 10.9714 16.8364 10.9226 16.686 10.7699C16.5321 10.6137 16.3613 10.4175 16.101 10.1264C15.8504 9.84612 15.5437 9.5089 15.1558 9.11785L14.4459 9.82208ZM17.0088 12V13H19.1904V12V11H17.0088V12ZM19.1904 12V13C19.6371 13 20.2308 12.8915 20.639 12.4059C21.0686 11.8949 21.0466 11.2677 20.9174 10.7963L19.9529 11.0604L18.9885 11.3246C19.0068 11.3916 18.9965 11.3944 19.0017 11.3506C19.008 11.2973 19.0346 11.2064 19.1081 11.1189C19.1787 11.0349 19.2512 11.0033 19.2739 10.9955C19.2916 10.9893 19.2703 11 19.1904 11V12ZM19.9529 11.0604L20.9088 10.7665C20.7612 10.2866 20.4466 9.79431 20.1148 9.34381C19.7685 8.87371 19.3326 8.35685 18.8633 7.81937L18.11 8.47708L17.3568 9.1348C17.8195 9.66481 18.2099 10.13 18.5045 10.5299C18.8135 10.9494 18.9543 11.215 18.9971 11.3544L19.9529 11.0604ZM18.11 8.47708L18.8717 7.8291C18.5846 7.4917 18.2349 7.14608 17.9582 6.87229C17.6402 6.55767 17.4707 6.38553 17.4151 6.3091L16.6063 6.89708L15.7974 7.48507C15.9748 7.72905 16.303 8.04816 16.5516 8.29407C16.8414 8.5808 17.1271 8.86497 17.3484 9.12507L18.11 8.47708ZM16.6063 6.89708L17.4088 6.30047C17.3844 6.26771 17.3709 6.24675 17.3644 6.23569C17.3578 6.22472 17.3608 6.22799 17.3671 6.24367C17.3737 6.26021 17.3839 6.28999 17.3909 6.33089C17.3981 6.37284 17.4005 6.41782 17.3972 6.46312C17.3906 6.5531 17.3644 6.60441 17.3699 6.59261C17.3726 6.58678 17.3799 6.57203 17.3961 6.54346C17.4125 6.51461 17.4329 6.48039 17.4614 6.43345L16.6063 5.915L15.7512 5.39655C15.6663 5.53651 15.434 5.88789 15.4025 6.31678C15.3654 6.823 15.598 7.21696 15.8037 7.4937L16.6063 6.89708ZM16.6063 5.915V4.915C16.8218 4.93851 17.2417 5.14292 17.4154 5.32751C17.5127 5.49281 17.5981 5.78818 17.6061 5.9044C17.608 6.08856 17.5561 6.22754 17.551 6.24218C17.525 6.317 17.4952 6.37208 17.4925 6.37729C17.4833 6.39478 17.4758 6.40785 17.4726 6.4133C17.4687 6.41985 17.4658 6.42466 17.4644 6.42695C17.4605 6.43328 17.4605 6.43307 17.469 6.42014C17.4839 6.39742 17.5085 6.36048 17.5446 6.30675C17.6145 6.20267 17.7202 6.04611 17.8467 5.85675C18.1008 5.47667 18.4466 4.95309 18.8029 4.38697C19.158 3.82297 19.5302 3.20595 19.8342 2.64057C20.1207 2.10788 20.405 1.51669 20.507 1.04133L19.5292 0.831667L18.5514 0.622007C18.5158 0.787898 18.3635 1.15275 18.0727 1.69341C17.7996 2.20139 17.4543 2.77506 17.1103 3.32157C16.7677 3.86598 16.433 4.37276 16.1839 4.74541C16.059 4.93242 15.9574 5.08282 15.8844 5.19161C15.849 5.24431 15.8182 5.29028 15.7962 5.32386C15.7862 5.33908 15.7724 5.36037 15.7596 5.38117C15.7555 5.38787 15.7393 5.41424 15.7219 5.44719C15.7182 5.45423 15.6878 5.5107 15.6615 5.58643C15.6563 5.60153 15.6043 5.74086 15.6062 5.92526C15.6142 6.04159 15.6996 6.33705 15.7969 6.5024C15.9707 6.68705 16.3907 6.89149 16.6063 6.915V5.915Z" fill="#1F1E1E" fill-opacity="0.2" mask="url(#path-1-inside-1_2743_4306)"/>
</svg>
