<svg width="1140" height="332" viewBox="0 0 1140 332" fill="none" xmlns="http://www.w3.org/2000/svg">
<path d="M1122.58 186.376L1140 197.827V200.221L1139.79 200.087L1122.03 188.41L1104.19 200.309V222.027L1121.49 210.972L1122.04 210.622L1122.58 210.979L1140 222.431V224.824L1139.79 224.689L1122.02 213.005L1104.19 224.4V231.229H1140V233.229H1104.19V239.604H1140V241.604H1104.19V249.98H1029.88V258.355H955.562V266.731H881.25V275.106H806.938V283.482H732.625V291.857H658.312V300.232H584V308.608H509.688V316.983H435.375V325.359H361.062V332H208.433L192.605 321.886L177.219 332H171.344L155.956 321.886L140.13 332H136.125V317.564L118.28 305.666L100.518 317.343L99.9688 317.704L99.4199 317.343L81.6562 305.666L63.8125 317.564V332H61.8125V325.94L43.9688 314.042L26.2051 325.719L25.6562 326.079L25.1074 325.719L7.34277 314.042L0 318.938V316.535L6.78516 312.011L7.33594 311.644L7.88867 312.007L25.6562 323.686L43.4238 312.007L43.9766 311.644L44.5273 312.011L61.8125 323.537V316.495L62.2578 316.198L81.0977 303.636L81.6484 303.269L82.2012 303.632L99.9688 315.311L117.736 303.632L118.289 303.269L118.84 303.636L136.125 315.161V308.12L136.57 307.823L155.41 295.26L155.961 294.893L156.514 295.257L174.281 306.935L192.049 295.257L192.602 294.893L193.152 295.26L210.438 306.786V299.745L210.883 299.448L229.723 286.885L230.273 286.518L230.826 286.881L248.594 298.56L266.361 286.881L266.914 286.518L267.465 286.885L284.75 298.411V291.369L285.195 291.072L304.035 278.509L304.586 278.142L305.139 278.506L322.906 290.184L340.674 278.506L341.227 278.142L341.777 278.509L359.062 290.035V282.994L359.508 282.697L378.348 270.134L378.898 269.767L379.451 270.13L397.219 281.809L414.986 270.13L415.539 269.767L416.09 270.134L433.375 281.66V274.618L433.82 274.321L452.66 261.758L453.211 261.391L453.764 261.755L471.531 273.433L489.299 261.755L489.852 261.391L490.402 261.758L507.688 273.284V266.243L508.133 265.946L526.973 253.383L527.523 253.016L528.076 253.379L545.844 265.058L563.611 253.379L564.164 253.016L564.715 253.383L582 264.909V257.867L582.445 257.57L601.285 245.008L601.836 244.64L602.389 245.004L620.156 256.682L637.924 245.004L638.477 244.64L639.027 245.008L656.312 256.533V249.492L656.758 249.195L675.598 236.632L676.148 236.265L676.701 236.628L694.469 248.307L712.236 236.628L712.789 236.265L713.34 236.632L730.625 248.158V241.116L731.07 240.819L749.91 228.257L750.461 227.889L751.014 228.253L768.781 239.932L786.549 228.253L787.102 227.889L787.652 228.257L804.938 239.782V232.741L805.383 232.444L824.223 219.881L824.773 219.514L825.326 219.877L843.094 231.556L860.861 219.877L861.414 219.514L861.965 219.881L879.25 231.407V224.365L879.695 224.068L898.535 211.506L899.086 211.139L899.639 211.502L917.406 223.181L935.174 211.502L935.727 211.139L936.277 211.506L953.562 223.031V215.99L954.008 215.693L972.848 203.13L973.398 202.763L973.951 203.126L991.719 214.805L1009.49 203.126L1010.04 202.763L1010.59 203.13L1027.88 214.656V207.614L1028.32 207.317L1047.16 194.755L1047.71 194.388L1048.26 194.751L1066.03 206.43L1083.8 194.751L1084.35 194.388L1084.9 194.755L1102.19 206.28V199.239L1102.63 198.942L1121.47 186.379L1122.02 186.012L1122.58 186.376ZM82.2012 328.234L87.9297 332H84.2881L81.6436 330.262L78.9238 332H75.2109L81.1143 328.228L81.6602 327.879L82.2012 328.234ZM118.823 328.228L124.727 332H121.013L118.293 330.262L115.648 332H112.008L117.736 328.234L118.277 327.879L118.823 328.228ZM453.764 324.57L465.067 332H461.426L453.218 326.605L445.128 332H441.524L452.66 324.574L453.211 324.207L453.764 324.57ZM490.402 324.574L501.538 332H497.934L489.844 326.605L481.637 332H477.995L489.299 324.57L489.852 324.207L490.402 324.574ZM1122.58 249.191L1140 260.644V263.037L1139.79 262.902L1122.03 251.226L1104.19 263.124V284.844L1121.49 273.787L1122.04 273.438L1122.58 273.794L1140 285.246V287.64L1139.79 287.505L1122.02 275.821L1104.19 287.217V294.045H1140V296.045H1104.19V302.421H1140V304.421H1104.19V312.796H1029.88V321.172H955.562V329.547H881.25V332H879.25V329.547H806.938V332H804.938V329.094L787.105 317.698L769.33 329.383L768.781 329.743L768.232 329.383L750.456 317.698L732.625 329.094V332H730.625V313.377L712.781 301.479L695.018 313.155L694.469 313.517L693.92 313.155L676.155 301.479L658.312 313.377V332H656.312V321.753L638.469 309.854L620.705 321.53L620.156 321.892L619.607 321.53L601.843 309.854L584 321.753V332H582V330.128L564.156 318.229L546.393 329.906L545.844 330.267L545.295 329.906L527.53 318.229L509.688 330.128V332H507.688V329.059L508.133 328.762L526.973 316.198L527.523 315.831L528.076 316.195L545.844 327.873L563.611 316.195L564.164 315.831L564.715 316.198L582 327.725V320.684L582.445 320.387L601.285 307.823L601.836 307.456L602.389 307.819L620.156 319.498L637.924 307.819L638.477 307.456L639.027 307.823L656.312 319.35V312.308L656.758 312.011L675.598 299.448L676.148 299.08L676.701 299.444L694.469 311.122L712.236 299.444L712.789 299.08L713.34 299.448L730.625 310.974V303.933L731.07 303.636L749.91 291.072L750.461 290.705L751.014 291.068L768.781 302.747L786.549 291.068L787.102 290.705L787.652 291.072L804.938 302.599V295.557L805.383 295.26L824.223 282.697L824.773 282.329L825.326 282.693L843.094 294.372L860.861 282.693L861.414 282.329L861.965 282.697L879.25 294.223V287.182L879.695 286.885L898.535 274.321L899.086 273.954L899.639 274.317L917.406 285.996L935.174 274.317L935.727 273.954L936.277 274.321L953.562 285.848V278.806L954.008 278.509L972.848 265.946L973.398 265.579L973.951 265.942L991.719 277.621L1009.49 265.942L1010.04 265.579L1010.59 265.946L1027.88 277.472V270.431L1028.32 270.134L1047.16 257.57L1047.71 257.203L1048.26 257.566L1066.03 269.245L1083.8 257.566L1084.35 257.203L1084.9 257.57L1102.19 269.097V262.055L1102.63 261.758L1121.47 249.195L1122.02 248.828L1122.58 249.191ZM676.701 324.047L688.801 332H685.159L676.144 326.074L666.87 332H663.158L675.614 324.04L676.16 323.691L676.701 324.047ZM713.323 324.04L725.779 332H722.066L712.793 326.074L703.777 332H700.137L712.236 324.047L712.777 323.691L713.323 324.04ZM973.951 328.758L978.884 332H975.242L973.405 330.793L971.596 332H967.991L972.848 328.762L973.398 328.395L973.951 328.758ZM1010.59 328.762L1015.45 332H1011.84L1010.03 330.793L1008.2 332H1004.55L1009.49 328.758L1010.04 328.395L1010.59 328.762ZM1048.26 320.383L1065.94 332H1062.3L1047.72 322.417L1033.35 332H1029.74L1047.16 320.387L1047.71 320.02L1048.26 320.383ZM1122.58 312.007L1140 323.459V325.853L1139.79 325.719L1122.03 314.042L1104.19 325.94V332H1098.71L1084.34 322.417L1069.76 332H1066.12L1083.8 320.383L1084.35 320.02L1084.9 320.387L1102.19 331.912V324.871L1102.63 324.574L1121.47 312.011L1122.02 311.644L1122.58 312.007ZM249.143 325.195L248.594 325.556L248.045 325.195L230.269 313.511L212.438 324.906V331.734H284.75V324.906L266.918 313.511L249.143 325.195ZM286.75 331.734H359.062V325.359H286.75V331.734ZM174.83 308.968L174.281 309.328L173.732 308.968L155.968 297.291L138.125 309.189V330.908L155.427 319.853L155.973 319.503L156.514 319.859L174.281 331.538L192.049 319.859L192.59 319.503L193.136 319.853L210.438 330.908V309.189L192.594 297.291L174.83 308.968ZM843.643 321.007L843.094 321.368L842.545 321.007L824.769 309.323L806.938 320.718V327.547H879.25V320.718L861.418 309.323L843.643 321.007ZM881.25 327.547H953.562V321.172H881.25V327.547ZM769.33 304.779L768.781 305.141L768.232 304.779L750.468 293.104L732.625 305.002V326.721L749.927 315.665L750.473 315.315L751.014 315.672L768.781 327.35L786.549 315.672L787.09 315.315L787.636 315.665L804.938 326.721V305.002L787.094 293.104L769.33 304.779ZM323.455 316.819L322.906 317.181L322.357 316.819L304.582 305.136L286.75 316.53V323.359H359.062V316.53L341.229 305.136L323.455 316.819ZM361.062 323.359H433.375V316.983H361.062V323.359ZM249.143 300.592L248.594 300.953L248.045 300.592L230.28 288.916L212.438 300.813V322.533L229.739 311.477L230.285 311.128L230.826 311.483L248.594 323.162L266.361 311.483L266.902 311.128L267.448 311.477L284.75 322.533V300.813L266.906 288.916L249.143 300.592ZM917.955 312.632L917.406 312.993L916.857 312.632L899.081 300.947L881.25 312.343V319.172H953.562V312.343L935.73 300.947L917.955 312.632ZM955.562 319.172H1027.88V312.796H955.562V319.172ZM843.643 296.404L843.094 296.766L842.545 296.404L824.781 284.728L806.938 296.626V318.346L824.239 307.289L824.785 306.94L825.326 307.296L843.094 318.975L860.861 307.296L861.402 306.94L861.948 307.289L879.25 318.346V296.626L861.405 284.728L843.643 296.404ZM397.768 308.444L397.219 308.805L396.67 308.444L378.894 296.76L361.062 308.155V314.983H433.375V308.155L415.543 296.76L397.768 308.444ZM435.375 314.983H507.688V308.608H435.375V314.983ZM323.455 292.217L322.906 292.577L322.357 292.217L304.593 280.54L286.75 292.438V314.158L304.052 303.102L304.598 302.752L305.139 303.108L322.906 314.787L340.674 303.108L341.215 302.752L341.761 303.102L359.062 314.158V292.438L341.219 280.54L323.455 292.217ZM992.268 304.256L991.719 304.617L991.17 304.256L973.394 292.572L955.562 303.968V310.796H1027.88V303.968L1010.04 292.572L992.268 304.256ZM1029.88 310.796H1102.19V304.421H1029.88V310.796ZM917.955 288.028L917.406 288.39L916.857 288.028L899.093 276.353L881.25 288.251V309.97L898.552 298.914L899.098 298.564L899.639 298.921L917.406 310.599L935.174 298.921L935.715 298.564L936.261 298.914L953.562 309.97V288.251L935.719 276.353L917.955 288.028ZM472.08 300.068L471.531 300.43L470.982 300.068L453.207 288.385L435.375 299.779V306.608H507.688V299.779L489.854 288.385L472.08 300.068ZM509.688 306.608H582V300.232H509.688V306.608ZM397.768 283.841L397.219 284.202L396.67 283.841L378.905 272.165L361.062 284.063V305.782L378.364 294.726L378.91 294.377L379.451 294.733L397.219 306.411L414.986 294.733L415.527 294.377L416.073 294.726L433.375 305.782V284.063L415.531 272.165L397.768 283.841ZM1122.58 123.56L1140 135.012V137.405L1139.79 137.271L1122.03 125.594L1104.19 137.492V159.212L1121.49 148.155L1122.04 147.807L1122.58 148.162L1140 159.614V162.008L1139.79 161.874L1122.02 150.189L1104.19 161.585V168.413H1140V170.413H1104.19V176.789H1140V178.789H1104.19V187.164H1029.88V195.54H955.562V203.915H881.25V212.291H806.938V220.666H732.625V229.042H658.312V237.417H584V245.792H509.688V254.168H435.375V262.543H361.062V270.919H286.75V279.294H212.438V287.67H138.125V296.045H63.8125V304.421H0V302.421H61.8125V296.045H0V294.045H61.8125V287.217L43.9805 275.821L26.2051 287.505L25.6562 287.866L25.1074 287.505L7.33105 275.821L0 280.506V278.133L6.80176 273.787L7.34766 273.438L7.88867 273.794L25.6562 285.473L43.4238 273.794L43.9648 273.438L44.5107 273.787L61.8125 284.844V263.124L43.9678 251.226L26.2051 262.902L25.6562 263.264L25.1074 262.902L7.34375 251.226L0 256.122V253.719L7.33594 248.828L7.88867 249.191L25.6562 260.87L43.4238 249.191L43.9766 248.828L44.5273 249.195L61.8125 260.721V253.68L62.2578 253.383L81.0977 240.819L81.6484 240.452L82.2012 240.816L99.9688 252.494L117.736 240.816L118.289 240.452L118.84 240.819L136.125 252.346V245.305L136.57 245.008L155.41 232.444L155.961 232.077L156.514 232.44L174.281 244.119L192.049 232.44L192.602 232.077L193.152 232.444L210.438 243.971V236.929L210.883 236.632L229.723 224.068L230.273 223.701L230.826 224.065L248.594 235.743L266.361 224.065L266.914 223.701L267.465 224.068L284.75 235.595V228.554L285.195 228.257L304.035 215.693L304.586 215.326L305.139 215.689L322.906 227.368L340.674 215.689L341.227 215.326L341.777 215.693L359.062 227.22V220.178L359.508 219.881L378.348 207.317L378.898 206.95L379.451 207.314L397.219 218.992L414.986 207.314L415.539 206.95L416.09 207.317L433.375 218.844V211.803L433.82 211.506L452.66 198.942L453.211 198.575L453.764 198.938L471.531 210.617L489.299 198.938L489.852 198.575L490.402 198.942L507.688 210.469V203.427L508.133 203.13L526.973 190.567L527.523 190.199L528.076 190.563L545.844 202.241L563.611 190.563L564.164 190.199L564.715 190.567L582 202.093V195.052L582.445 194.755L601.285 182.191L601.836 181.824L602.389 182.188L620.156 193.866L637.924 182.188L638.477 181.824L639.027 182.191L656.312 193.718V186.676L656.758 186.379L675.598 173.816L676.148 173.448L676.701 173.812L694.469 185.491L712.236 173.812L712.789 173.448L713.34 173.816L730.625 185.342V178.301L731.07 178.004L749.91 165.44L750.461 165.073L751.014 165.437L768.781 177.115L786.549 165.437L787.102 165.073L787.652 165.44L804.938 176.967V169.925L805.383 169.628L824.223 157.065L824.773 156.698L825.326 157.062L843.094 168.74L860.861 157.062L861.414 156.698L861.965 157.065L879.25 168.591V161.55L879.695 161.253L898.535 148.689L899.086 148.322L899.639 148.686L917.406 160.364L935.174 148.686L935.727 148.322L936.277 148.689L953.562 160.216V153.174L954.008 152.877L972.848 140.314L973.398 139.947L973.951 140.311L991.719 151.989L1009.49 140.311L1010.04 139.947L1010.59 140.314L1027.88 151.84V144.799L1028.32 144.502L1047.16 131.938L1047.71 131.571L1048.26 131.936L1066.03 143.613L1083.8 131.936L1084.35 131.571L1084.9 131.938L1102.19 143.465V136.424L1102.63 136.127L1121.47 123.563L1122.02 123.196L1122.58 123.56ZM1066.58 295.881L1066.03 296.242L1065.48 295.881L1047.71 284.196L1029.88 295.592V302.421H1102.19V295.592L1084.36 284.196L1066.58 295.881ZM992.268 279.653L991.719 280.015L991.17 279.653L973.406 267.977L955.562 279.875V301.595L972.864 290.538L973.41 290.189L973.951 290.545L991.719 302.224L1009.49 290.545L1010.03 290.189L1010.57 290.538L1027.88 301.595V279.875L1010.03 267.977L992.268 279.653ZM546.393 291.693L545.844 292.054L545.295 291.693L527.519 280.009L509.688 291.404V298.232H582V291.404L564.168 280.009L546.393 291.693ZM584 298.232H656.312V291.857H584V298.232ZM472.08 275.466L471.531 275.826L470.982 275.466L453.218 263.789L435.375 275.688V297.407L452.677 286.351L453.223 286.001L453.764 286.357L471.531 298.036L489.299 286.357L489.84 286.001L490.386 286.351L507.688 297.407V275.688L489.844 263.789L472.08 275.466ZM63.8125 294.045H136.125V287.67H63.8125V294.045ZM1066.58 271.278L1066.03 271.639L1065.48 271.278L1047.72 259.602L1029.88 271.5V293.219L1047.18 282.163L1047.72 281.813L1048.26 282.17L1066.03 293.848L1083.8 282.17L1084.34 281.813L1084.89 282.163L1102.19 293.219V271.5L1084.34 259.602L1066.58 271.278ZM620.705 283.317L620.156 283.679L619.607 283.317L601.831 271.634L584 283.028V289.857H656.312V283.028L638.48 271.634L620.705 283.317ZM658.312 289.857H730.625V283.482H658.312V289.857ZM546.393 267.09L545.844 267.451L545.295 267.09L527.53 255.414L509.688 267.312V289.031L526.989 277.975L527.535 277.626L528.076 277.982L545.844 289.66L563.611 277.982L564.152 277.626L564.698 277.975L582 289.031V267.312L564.156 255.414L546.393 267.09ZM100.518 279.13L99.9688 279.491L99.4199 279.13L81.6436 267.445L63.8125 278.841V285.67H136.125V278.841L118.293 267.445L100.518 279.13ZM138.125 285.67H210.438V279.294H138.125V285.67ZM695.018 274.942L694.469 275.303L693.92 274.942L676.144 263.258L658.312 274.653V281.482H730.625V274.653L712.793 263.258L695.018 274.942ZM732.625 281.482H804.938V275.106H732.625V281.482ZM620.705 258.715L620.156 259.076L619.607 258.715L601.843 247.038L584 258.937V280.656L601.302 269.6L601.848 269.251L602.389 269.606L620.156 281.285L637.924 269.606L638.465 269.251L639.011 269.6L656.312 280.656V258.937L638.469 247.038L620.705 258.715ZM174.83 270.755L174.281 271.115L173.732 270.755L155.956 259.07L138.125 270.466V277.294H210.438V270.466L192.605 259.07L174.83 270.755ZM212.438 277.294H284.75V270.919H212.438V277.294ZM100.518 254.527L99.9688 254.888L99.4199 254.527L81.6553 242.851L63.8125 254.749V276.468L81.1143 265.412L81.6602 265.062L82.2012 265.419L99.9688 277.098L117.736 265.419L118.277 265.062L118.823 265.412L136.125 276.468V254.749L118.281 242.851L100.518 254.527ZM769.33 266.566L768.781 266.928L768.232 266.566L750.456 254.883L732.625 266.277V273.106H804.938V266.277L787.105 254.883L769.33 266.566ZM806.938 273.106H879.25V266.731H806.938V273.106ZM695.018 250.339L694.469 250.7L693.92 250.339L676.155 238.663L658.312 250.562V272.28L675.614 261.225L676.16 260.875L676.701 261.231L694.469 272.909L712.236 261.231L712.777 260.875L713.323 261.225L730.625 272.28V250.562L712.781 238.663L695.018 250.339ZM249.143 262.379L248.594 262.74L248.045 262.379L230.27 250.695L212.438 262.09V268.919H284.75V262.09L266.917 250.695L249.143 262.379ZM286.75 268.919H359.062V262.543H286.75V268.919ZM174.83 246.151L174.281 246.513L173.732 246.151L155.969 234.475L138.125 246.373V268.093L155.427 257.036L155.973 256.688L156.514 257.043L174.281 268.722L192.049 257.043L192.59 256.688L193.136 257.036L210.438 268.093V246.373L192.593 234.475L174.83 246.151ZM843.643 258.191L843.094 258.553L842.545 258.191L824.769 246.507L806.938 257.902V264.731H879.25V257.902L861.418 246.507L843.643 258.191ZM881.25 264.731H953.562V258.355H881.25V264.731ZM769.33 241.964L768.781 242.325L768.232 241.964L750.469 230.287L732.625 242.186V263.905L749.927 252.849L750.473 252.5L751.014 252.855L768.781 264.534L786.549 252.855L787.09 252.5L787.636 252.849L804.938 263.905V242.186L787.093 230.287L769.33 241.964ZM323.455 254.004L322.906 254.364L322.357 254.004L304.581 242.319L286.75 253.715V260.543H359.062V253.715L341.23 242.319L323.455 254.004ZM361.062 260.543H433.375V254.168H361.062V260.543ZM249.143 237.776L248.594 238.137L248.045 237.776L230.28 226.1L212.438 237.998V259.718L229.739 248.661L230.285 248.312L230.826 248.668L248.594 260.347L266.361 248.668L266.902 248.312L267.448 248.661L284.75 259.718V237.998L266.906 226.1L249.143 237.776ZM917.955 249.815L917.406 250.177L916.857 249.815L899.081 238.132L881.25 249.527V256.355H953.562V249.527L935.73 238.132L917.955 249.815ZM955.562 256.355H1027.88V249.98H955.562V256.355ZM843.643 233.588L843.094 233.949L842.545 233.588L824.78 221.912L806.938 233.811V255.529L824.239 244.474L824.785 244.124L825.326 244.48L843.094 256.158L860.861 244.48L861.402 244.124L861.948 244.474L879.25 255.529V233.811L861.406 221.912L843.643 233.588ZM397.768 245.628L397.219 245.989L396.67 245.628L378.895 233.944L361.062 245.339V252.168H433.375V245.339L415.542 233.944L397.768 245.628ZM435.375 252.168H507.688V245.792H435.375V252.168ZM323.455 229.4L322.906 229.762L322.357 229.4L304.593 217.725L286.75 229.623V251.342L304.052 240.285L304.598 239.937L305.139 240.293L322.906 251.971L340.674 240.293L341.215 239.937L341.761 240.285L359.062 251.342V229.623L341.219 217.725L323.455 229.4ZM992.268 241.44L991.719 241.802L991.17 241.44L973.394 229.756L955.562 241.151V247.98H1027.88V241.151L1010.04 229.756L992.268 241.44ZM1029.88 247.98H1102.19V241.604H1029.88V247.98ZM917.955 225.213L917.406 225.574L916.857 225.213L899.094 213.536L881.25 225.435V247.154L898.552 236.098L899.098 235.749L899.639 236.104L917.406 247.783L935.174 236.104L935.715 235.749L936.261 236.098L953.562 247.154V225.435L935.718 213.536L917.955 225.213ZM472.08 237.253L471.531 237.613L470.982 237.253L453.206 225.568L435.375 236.964V243.792H507.688V236.964L489.855 225.568L472.08 237.253ZM509.688 243.792H582V237.417H509.688V243.792ZM397.768 221.025L397.219 221.386L396.67 221.025L378.905 209.349L361.062 221.247V242.967L378.364 231.91L378.91 231.561L379.451 231.917L397.219 243.596L414.986 231.917L415.527 231.561L416.073 231.91L433.375 242.967V221.247L415.531 209.349L397.768 221.025ZM1122.58 60.7441L1140 72.1953V74.5889L1139.79 74.4551L1122.03 62.7783L1104.19 74.6768V96.3955L1121.49 85.3398L1122.04 84.9902L1122.58 85.3467L1140 96.7988V99.1924L1139.79 99.0576L1122.02 87.373L1104.19 98.7686V105.598H1140V107.598H1104.19V113.973H1140V115.973H1104.19V124.349H1029.88V132.724H955.562V141.1H881.25V149.475H806.938V157.851H732.625V166.226H658.312V174.602H584V182.977H509.688V191.352H435.375V199.728H361.062V208.103H286.75V216.479H212.438V224.854H138.125V233.229H63.8125V241.604H0V239.604H61.8125V233.229H0V231.229H61.8125V224.4L43.9805 213.005L26.2051 224.689L25.6562 225.051L25.1074 224.689L7.33105 213.005L0 217.689V215.317L6.80176 210.972L7.34766 210.622L7.88867 210.979L25.6562 222.657L43.4238 210.979L43.9648 210.622L44.5107 210.972L61.8125 222.027V200.309L43.9688 188.41L26.2051 200.087L25.6562 200.447L25.1074 200.087L7.34277 188.41L0 193.307V190.903L6.78516 186.379L7.33594 186.012L7.88867 186.376L25.6562 198.054L43.4238 186.376L43.9766 186.012L44.5273 186.379L61.8125 197.905V190.864L62.2578 190.567L81.0977 178.004L81.6484 177.637L82.2012 178L99.9688 189.679L117.736 178L118.289 177.637L118.84 178.004L136.125 189.53V182.488L136.57 182.191L155.41 169.628L155.961 169.261L156.514 169.625L174.281 181.303L192.049 169.625L192.602 169.261L193.152 169.628L210.438 181.154V174.113L210.883 173.816L229.723 161.253L230.273 160.886L230.826 161.249L248.594 172.928L266.361 161.249L266.914 160.886L267.465 161.253L284.75 172.779V165.737L285.195 165.44L304.035 152.877L304.586 152.51L305.139 152.874L322.906 164.552L340.674 152.874L341.227 152.51L341.777 152.877L359.062 164.403V157.362L359.508 157.065L378.348 144.502L378.898 144.135L379.451 144.498L397.219 156.177L414.986 144.498L415.539 144.135L416.09 144.502L433.375 156.028V148.986L433.82 148.689L452.66 136.127L453.211 135.759L453.764 136.123L471.531 147.801L489.299 136.123L489.852 135.759L490.402 136.127L507.688 147.652V140.611L508.133 140.314L526.973 127.751L527.523 127.384L528.076 127.747L545.844 139.426L563.611 127.747L564.164 127.384L564.715 127.751L582 139.277V132.235L582.445 131.938L601.285 119.376L601.836 119.008L602.389 119.372L620.156 131.051L637.924 119.372L638.477 119.008L639.027 119.376L656.312 130.901V123.86L656.758 123.563L675.598 111L676.148 110.633L676.701 110.996L694.469 122.675L712.236 110.996L712.789 110.633L713.34 111L730.625 122.526V115.484L731.07 115.188L749.91 102.625L750.461 102.258L751.014 102.621L768.781 114.3L786.549 102.621L787.102 102.258L787.652 102.625L804.938 114.15V107.109L805.383 106.812L824.223 94.249L824.773 93.8818L825.326 94.2451L843.094 105.924L860.861 94.2451L861.414 93.8818L861.965 94.249L879.25 105.775V98.7334L879.695 98.4365L898.535 85.874L899.086 85.5068L899.639 85.8701L917.406 97.5488L935.174 85.8701L935.727 85.5068L936.277 85.874L953.562 97.3994V90.3584L954.008 90.0615L972.848 77.498L973.398 77.1309L973.951 77.4951L991.719 89.1729L1009.49 77.4951L1010.04 77.1309L1010.59 77.498L1027.88 89.0244V81.9834L1028.32 81.6865L1047.16 69.123L1047.71 68.7559L1048.26 69.1191L1066.03 80.7979L1083.8 69.1191L1084.35 68.7559L1084.9 69.123L1102.19 80.6494V73.6074L1102.63 73.3105L1121.47 60.7471L1122.02 60.3799L1122.58 60.7441ZM1066.58 233.064L1066.03 233.426L1065.48 233.064L1047.71 221.381L1029.88 232.776V239.604H1102.19V232.776L1084.36 221.381L1066.58 233.064ZM992.268 216.838L991.719 217.198L991.17 216.838L973.405 205.161L955.562 217.06V238.778L972.864 227.723L973.41 227.373L973.951 227.729L991.719 239.407L1009.49 227.729L1010.03 227.373L1010.57 227.723L1027.88 238.778V217.06L1010.03 205.161L992.268 216.838ZM546.393 228.877L545.844 229.238L545.295 228.877L527.519 217.193L509.688 228.588V235.417H582V228.588L564.168 217.193L546.393 228.877ZM584 235.417H656.312V229.042H584V235.417ZM472.08 212.649L471.531 213.011L470.982 212.649L453.218 200.974L435.375 212.872V234.591L452.677 223.534L453.223 223.186L453.764 223.542L471.531 235.22L489.299 223.542L489.84 223.186L490.386 223.534L507.688 234.591V212.872L489.844 200.974L472.08 212.649ZM63.8125 231.229H136.125V224.854H63.8125V231.229ZM1066.58 208.462L1066.03 208.823L1065.48 208.462L1047.72 196.785L1029.88 208.684V230.403L1047.18 219.347L1047.72 218.998L1048.26 219.354L1066.03 231.032L1083.8 219.354L1084.34 218.998L1084.89 219.347L1102.19 230.403V208.684L1084.34 196.785L1066.58 208.462ZM620.705 220.502L620.156 220.862L619.607 220.502L601.831 208.817L584 220.213V227.042H656.312V220.213L638.48 208.817L620.705 220.502ZM658.312 227.042H730.625V220.666H658.312V227.042ZM546.393 204.274L545.844 204.636L545.295 204.274L527.53 192.598L509.688 204.496V226.216L526.989 215.159L527.535 214.811L528.076 215.166L545.844 226.845L563.611 215.166L564.152 214.811L564.698 215.159L582 226.216V204.496L564.156 192.598L546.393 204.274ZM100.518 216.314L99.9688 216.675L99.4199 216.314L81.6436 204.63L63.8125 216.025V222.854H136.125V216.025L118.293 204.63L100.518 216.314ZM138.125 222.854H210.438V216.479H138.125V222.854ZM695.018 212.126L694.469 212.487L693.92 212.126L676.144 200.442L658.312 211.837V218.666H730.625V211.837L712.793 200.442L695.018 212.126ZM732.625 218.666H804.938V212.291H732.625V218.666ZM620.705 195.898L620.156 196.26L619.607 195.898L601.843 184.223L584 196.121V217.84L601.302 206.784L601.848 206.435L602.389 206.791L620.156 218.469L637.924 206.791L638.465 206.435L639.011 206.784L656.312 217.84V196.121L638.469 184.223L620.705 195.898ZM174.83 207.938L174.281 208.3L173.732 207.938L155.957 196.255L138.125 207.649V214.479H210.438V207.649L192.604 196.255L174.83 207.938ZM212.438 214.479H284.75V208.103H212.438V214.479ZM100.518 191.711L99.9688 192.072L99.4199 191.711L81.6562 180.034L63.8125 191.933V213.652L81.1143 202.596L81.6602 202.247L82.2012 202.603L99.9688 214.281L117.736 202.603L118.277 202.247L118.823 202.596L136.125 213.652V191.933L118.28 180.034L100.518 191.711ZM769.33 203.751L768.781 204.112L768.232 203.751L750.456 192.066L732.625 203.462V210.291H804.938V203.462L787.105 192.066L769.33 203.751ZM806.938 210.291H879.25V203.915H806.938V210.291ZM695.018 187.523L694.469 187.885L693.92 187.523L676.156 175.847L658.312 187.745V209.465L675.614 198.408L676.16 198.06L676.701 198.415L694.469 210.094L712.236 198.415L712.777 198.06L713.323 198.408L730.625 209.465V187.745L712.78 175.847L695.018 187.523ZM249.143 199.563L248.594 199.924L248.045 199.563L230.269 187.879L212.438 199.274V206.103H284.75V199.274L266.918 187.879L249.143 199.563ZM286.75 206.103H359.062V199.728H286.75V206.103ZM174.83 183.336L174.281 183.696L173.732 183.336L155.968 171.659L138.125 183.558V205.276L155.427 194.221L155.973 193.871L156.514 194.228L174.281 205.906L192.049 194.228L192.59 193.871L193.136 194.221L210.438 205.276V183.558L192.594 171.659L174.83 183.336ZM843.643 195.375L843.094 195.736L842.545 195.375L824.769 183.691L806.938 195.087V201.915H879.25V195.087L861.418 183.691L843.643 195.375ZM881.25 201.915H953.562V195.54H881.25V201.915ZM769.33 179.147L768.781 179.509L768.232 179.147L750.468 167.472L732.625 179.37V201.089L749.927 190.033L750.473 189.684L751.014 190.04L768.781 201.718L786.549 190.04L787.09 189.684L787.636 190.033L804.938 201.089V179.37L787.094 167.472L769.33 179.147ZM323.455 191.188L322.906 191.549L322.357 191.188L304.582 179.504L286.75 190.898V197.728H359.062V190.898L341.229 179.504L323.455 191.188ZM361.062 197.728H433.375V191.352H361.062V197.728ZM249.143 174.96L248.594 175.321L248.045 174.96L230.28 163.284L212.438 175.183V196.901L229.739 185.845L230.285 185.496L230.826 185.853L248.594 197.53L266.361 185.853L266.902 185.496L267.448 185.845L284.75 196.901V175.183L266.906 163.284L249.143 174.96ZM917.955 187L917.406 187.361L916.857 187L899.081 175.315L881.25 186.711V193.54H953.562V186.711L935.73 175.315L917.955 187ZM955.562 193.54H1027.88V187.164H955.562V193.54ZM843.643 170.772L843.094 171.134L842.545 170.772L824.781 159.096L806.938 170.994V192.714L824.239 181.657L824.785 181.309L825.326 181.664L843.094 193.343L860.861 181.664L861.402 181.309L861.948 181.657L879.25 192.714V170.994L861.405 159.096L843.643 170.772ZM397.768 182.812L397.219 183.173L396.67 182.812L378.894 171.128L361.062 182.523V189.352H433.375V182.523L415.543 171.128L397.768 182.812ZM435.375 189.352H507.688V182.977H435.375V189.352ZM323.455 166.585L322.906 166.945L322.357 166.585L304.593 154.908L286.75 166.807V188.526L304.052 177.47L304.598 177.12L305.139 177.477L322.906 189.155L340.674 177.477L341.215 177.12L341.761 177.47L359.062 188.526V166.807L341.219 154.908L323.455 166.585ZM992.268 178.624L991.719 178.985L991.17 178.624L973.394 166.94L955.562 178.336V185.164H1027.88V178.336L1010.04 166.94L992.268 178.624ZM1029.88 185.164H1102.19V178.789H1029.88V185.164ZM917.955 162.397L917.406 162.758L916.857 162.397L899.093 150.721L881.25 162.619V184.338L898.552 173.282L899.098 172.933L899.639 173.289L917.406 184.967L935.174 173.289L935.715 172.933L936.261 173.282L953.562 184.338V162.619L935.719 150.721L917.955 162.397ZM472.08 174.437L471.531 174.798L470.982 174.437L453.206 162.753L435.375 174.147V180.977H507.688V174.147L489.855 162.753L472.08 174.437ZM509.688 180.977H582V174.602H509.688V180.977ZM397.768 158.209L397.219 158.57L396.67 158.209L378.905 146.533L361.062 158.432V180.15L378.364 169.094L378.91 168.745L379.451 169.102L397.219 180.779L414.986 169.102L415.527 168.745L416.073 169.094L433.375 180.15V158.432L415.531 146.533L397.768 158.209ZM1104.19 11.8613V33.5801L1121.49 22.5234L1122.04 22.1748L1122.58 22.5312L1140 33.9824V36.376L1139.79 36.2422L1122.02 24.5576L1104.19 35.9531V42.7812H1140V44.7812H1104.19V51.1572H1140V53.1572H1104.19V61.5322H1029.88V69.9082H955.562V78.2832H881.25V86.6592H806.938V95.0342H732.625V103.41H658.312V111.785H584V120.161H509.688V128.536H435.375V136.911H361.062V145.287H286.75V153.662H212.438V162.038H138.125V170.413H63.8125V178.789H0V176.789H61.8125V170.413H0V168.413H61.8125V161.585L43.9805 150.189L26.2051 161.874L25.6562 162.234L25.1074 161.874L7.33105 150.189L0 154.874V152.501L6.80176 148.155L7.34766 147.807L7.88867 148.162L25.6562 159.841L43.4238 148.162L43.9648 147.807L44.5107 148.155L61.8125 159.212V137.492L43.9678 125.594L26.2051 137.271L25.6562 137.632L25.1074 137.271L7.34375 125.594L0 130.49V128.088L6.78516 123.563L7.33594 123.196L7.88867 123.56L25.6562 135.238L43.4238 123.56L43.9766 123.196L44.5273 123.563L61.8125 135.09V128.048L62.2578 127.751L81.0977 115.188L81.6484 114.82L82.2012 115.185L99.9688 126.862L117.736 115.185L118.289 114.82L118.84 115.188L136.125 126.714V119.673L136.57 119.376L155.41 106.812L155.961 106.445L156.514 106.809L174.281 118.487L192.049 106.809L192.602 106.445L193.152 106.812L210.438 118.339V111.297L210.883 111L229.723 98.4365L230.273 98.0693L230.826 98.4336L248.594 110.111L266.361 98.4336L266.914 98.0693L267.465 98.4365L284.75 109.963V102.922L285.195 102.625L304.035 90.0615L304.586 89.6943L305.139 90.0576L322.906 101.736L340.674 90.0576L341.227 89.6943L341.777 90.0615L359.062 101.588V94.5459L359.508 94.249L378.348 81.6865L378.898 81.3184L379.451 81.6826L397.219 93.3604L414.986 81.6826L415.539 81.3184L416.09 81.6865L433.375 93.2119V86.1709L433.82 85.874L452.66 73.3105L453.211 72.9434L453.764 73.3066L471.531 84.9854L489.299 73.3066L489.852 72.9434L490.402 73.3105L507.688 84.8369V77.7949L508.133 77.498L526.973 64.9355L527.523 64.5674L528.076 64.9316L545.844 76.6104L563.611 64.9316L564.164 64.5674L564.715 64.9355L582 76.4609V69.4199L582.445 69.123L601.285 56.5596L601.836 56.1924L602.389 56.5557L620.156 68.2344L637.924 56.5557L638.477 56.1924L639.027 56.5596L656.312 68.0859V61.0439L656.758 60.7471L675.598 48.1846L676.148 47.8174L676.701 48.1807L694.469 59.8594L712.236 48.1807L712.789 47.8174L713.34 48.1846L730.625 59.71V52.6689L731.07 52.3721L749.91 39.8086L750.461 39.4414L751.014 39.8047L768.781 51.4834L786.549 39.8047L787.102 39.4414L787.652 39.8086L804.938 51.335V44.293L805.383 43.9961L824.223 31.4336L824.773 31.0664L825.326 31.4297L843.094 43.1084L860.861 31.4297L861.414 31.0664L861.965 31.4336L879.25 42.959V35.918L879.695 35.6211L898.535 23.0576L899.086 22.6904L899.639 23.0547L917.406 34.7324L935.174 23.0547L935.727 22.6904L936.277 23.0576L953.562 34.584V27.543L954.008 27.2461L972.848 14.6826L973.398 14.3154L973.951 14.6787L991.719 26.3574L1009.49 14.6787L1010.04 14.3154L1010.59 14.6826L1027.88 26.209V19.167L1028.32 18.8701L1047.16 6.30664L1047.71 5.93945L1048.26 6.30371L1066.03 17.9814L1083.8 6.30371L1084.35 5.93945L1084.9 6.30664L1102.19 17.833V10.792L1102.63 10.4951L1118.37 0H1121.98L1104.19 11.8613ZM1066.58 170.249L1066.03 170.61L1065.48 170.249L1047.71 158.564L1029.88 169.96V176.789H1102.19V169.96L1084.36 158.564L1066.58 170.249ZM992.268 154.021L991.719 154.383L991.17 154.021L973.406 142.345L955.562 154.243V175.963L972.864 164.906L973.41 164.558L973.951 164.913L991.719 176.592L1009.49 164.913L1010.03 164.558L1010.57 164.906L1027.88 175.963V154.243L1010.03 142.345L992.268 154.021ZM546.393 166.062L545.844 166.422L545.295 166.062L527.519 154.377L509.688 165.772V172.602H582V165.772L564.168 154.377L546.393 166.062ZM584 172.602H656.312V166.226H584V172.602ZM472.08 149.834L471.531 150.195L470.982 149.834L453.218 138.157L435.375 150.056V171.775L452.677 160.719L453.223 160.37L453.764 160.726L471.531 172.404L489.299 160.726L489.84 160.37L490.386 160.719L507.688 171.775V150.056L489.844 138.157L472.08 149.834ZM63.8125 168.413H136.125V162.038H63.8125V168.413ZM1066.58 145.646L1066.03 146.007L1065.48 145.646L1047.72 133.97L1029.88 145.868V167.587L1047.18 156.531L1047.72 156.182L1048.26 156.538L1066.03 168.217L1083.8 156.538L1084.34 156.182L1084.89 156.531L1102.19 167.587V145.868L1084.34 133.97L1066.58 145.646ZM620.705 157.686L620.156 158.047L619.607 157.686L601.831 146.002L584 157.396V164.226H656.312V157.396L638.48 146.002L620.705 157.686ZM658.312 164.226H730.625V157.851H658.312V164.226ZM546.393 141.458L545.844 141.819L545.295 141.458L527.53 129.782L509.688 141.681V163.399L526.989 152.344L527.535 151.994L528.076 152.351L545.844 164.028L563.611 152.351L564.152 151.994L564.698 152.344L582 163.399V141.681L564.156 129.782L546.393 141.458ZM100.518 153.498L99.9688 153.859L99.4199 153.498L81.6445 141.814L63.8125 153.209V160.038H136.125V153.209L118.292 141.814L100.518 153.498ZM138.125 160.038H210.438V153.662H138.125V160.038ZM695.018 149.311L694.469 149.672L693.92 149.311L676.144 137.626L658.312 149.021V155.851H730.625V149.021L712.793 137.626L695.018 149.311ZM732.625 155.851H804.938V149.475H732.625V155.851ZM620.705 133.083L620.156 133.444L619.607 133.083L601.844 121.406L584 133.305V155.024L601.302 143.968L601.848 143.619L602.389 143.975L620.156 155.653L637.924 143.975L638.465 143.619L639.011 143.968L656.312 155.024V133.305L638.468 121.406L620.705 133.083ZM174.83 145.123L174.281 145.483L173.732 145.123L155.956 133.438L138.125 144.834V151.662H210.438V144.834L192.605 133.438L174.83 145.123ZM212.438 151.662H284.75V145.287H212.438V151.662ZM100.518 128.896L99.9688 129.256L99.4199 128.896L81.6553 117.219L63.8125 129.117V150.836L81.1143 139.78L81.6602 139.431L82.2012 139.787L99.9688 151.466L117.736 139.787L118.277 139.431L118.823 139.78L136.125 150.836V129.117L118.281 117.219L100.518 128.896ZM769.33 140.935L768.781 141.296L768.232 140.935L750.456 129.251L732.625 140.646V147.475H804.938V140.646L787.105 129.251L769.33 140.935ZM806.938 147.475H879.25V141.1H806.938V147.475ZM695.018 124.707L694.469 125.068L693.92 124.707L676.155 113.031L658.312 124.93V146.648L675.614 135.593L676.16 135.243L676.701 135.6L694.469 147.277L712.236 135.6L712.777 135.243L713.323 135.593L730.625 146.648V124.93L712.781 113.031L695.018 124.707ZM249.143 136.747L248.594 137.108L248.045 136.747L230.27 125.063L212.438 136.458V143.287H284.75V136.458L266.917 125.063L249.143 136.747ZM286.75 143.287H359.062V136.911H286.75V143.287ZM174.83 120.52L174.281 120.881L173.732 120.52L155.968 108.844L138.125 120.742V142.461L155.427 131.404L155.973 131.056L156.514 131.412L174.281 143.09L192.049 131.412L192.59 131.056L193.136 131.404L210.438 142.461V120.742L192.594 108.844L174.83 120.52ZM843.643 132.56L843.094 132.921L842.545 132.56L824.769 120.875L806.938 132.271V139.1H879.25V132.271L861.418 120.875L843.643 132.56ZM881.25 139.1H953.562V132.724H881.25V139.1ZM769.33 116.332L768.781 116.693L768.232 116.332L750.469 104.655L732.625 116.554V138.273L749.927 127.217L750.473 126.868L751.014 127.224L768.781 138.902L786.549 127.224L787.09 126.868L787.636 127.217L804.938 138.273V116.554L787.093 104.655L769.33 116.332ZM323.455 128.372L322.906 128.732L322.357 128.372L304.581 116.688L286.75 128.083V134.911H359.062V128.083L341.23 116.688L323.455 128.372ZM361.062 134.911H433.375V128.536H361.062V134.911ZM249.143 112.145L248.594 112.505L248.045 112.145L230.28 100.468L212.438 112.366V134.086L229.739 123.029L230.285 122.68L230.826 123.036L248.594 134.715L266.361 123.036L266.902 122.68L267.448 123.029L284.75 134.086V112.366L266.906 100.468L249.143 112.145ZM917.955 124.184L917.406 124.545L916.857 124.184L899.081 112.5L881.25 123.896V130.724H953.562V123.896L935.73 112.5L917.955 124.184ZM955.562 130.724H1027.88V124.349H955.562V130.724ZM843.643 107.957L843.094 108.317L842.545 107.957L824.78 96.2803L806.938 108.179V129.897L824.239 118.842L824.785 118.492L825.326 118.849L843.094 130.526L860.861 118.849L861.402 118.492L861.948 118.842L879.25 129.897V108.179L861.406 96.2803L843.643 107.957ZM397.768 119.996L397.219 120.357L396.67 119.996L378.894 108.312L361.062 119.707V126.536H433.375V119.707L415.543 108.312L397.768 119.996ZM435.375 126.536H507.688V120.161H435.375V126.536ZM323.455 103.769L322.906 104.13L322.357 103.769L304.593 92.0928L286.75 103.991V125.71L304.052 114.653L304.598 114.305L305.139 114.661L322.906 126.339L340.674 114.661L341.215 114.305L341.761 114.653L359.062 125.71V103.991L341.219 92.0928L323.455 103.769ZM992.268 115.809L991.719 116.17L991.17 115.809L973.394 104.124L955.562 115.52V122.349H1027.88V115.52L1010.04 104.124L992.268 115.809ZM1029.88 122.349H1102.19V115.973H1029.88V122.349ZM917.955 99.5811L917.406 99.9424L916.857 99.5811L899.094 87.9043L881.25 99.8027V121.522L898.552 110.466L899.098 110.117L899.639 110.473L917.406 122.151L935.174 110.473L935.715 110.117L936.261 110.466L953.562 121.522V99.8027L935.718 87.9043L917.955 99.5811ZM472.08 111.621L471.531 111.981L470.982 111.621L453.206 99.9365L435.375 111.332V118.161H507.688V111.332L489.855 99.9365L472.08 111.621ZM509.688 118.161H582V111.785H509.688V118.161ZM397.768 95.3936L397.219 95.7549L396.67 95.3936L378.905 83.7168L361.062 95.6152V117.335L378.364 106.278L378.91 105.93L379.451 106.285L397.219 117.964L414.986 106.285L415.527 105.93L416.073 106.278L433.375 117.335V95.6152L415.531 83.7168L397.768 95.3936ZM1029.88 7.0918H955.562V15.4678H881.25V23.8428H806.938V32.2188H732.625V40.5938H658.312V48.9697H584V57.3447H509.688V65.7207H435.375V74.0957H361.062V82.4707H286.75V90.8467H212.438V99.2217H138.125V107.598H63.8125V115.973H0V113.973H61.8125V107.598H0V105.598H61.8125V98.7686L43.9795 87.374L26.2051 99.0576L25.6562 99.4189L25.1074 99.0576L7.33203 87.374L0 92.0586V89.6855L6.80176 85.3398L7.34766 84.9902L7.88867 85.3467L25.6562 97.0254L43.4238 85.3467L43.9648 84.9902L44.5107 85.3398L61.8125 96.3955V74.6768L43.9688 62.7783L26.2051 74.4551L25.6562 74.8154L25.1074 74.4551L7.34277 62.7783L0 67.6748V65.2715L6.78516 60.7471L7.33594 60.3799L7.88867 60.7441L25.6562 72.4219L43.4238 60.7441L43.9766 60.3799L44.5273 60.7471L61.8125 72.2734V65.2324L62.2578 64.9355L81.0977 52.3721L81.6484 52.0049L82.2012 52.3682L99.9688 64.0469L117.736 52.3682L118.289 52.0049L118.84 52.3721L136.125 63.8984V56.8564L136.57 56.5596L155.41 43.9961L155.961 43.6289L156.514 43.9932L174.281 55.6709L192.049 43.9932L192.602 43.6289L193.152 43.9961L210.438 55.5225V48.4814L210.883 48.1846L229.723 35.6211L230.273 35.2539L230.826 35.6172L248.594 47.2959L266.361 35.6172L266.914 35.2539L267.465 35.6211L284.75 47.1475V40.1055L285.195 39.8086L304.035 27.2461L304.586 26.8779L305.139 27.2422L322.906 38.9199L340.674 27.2422L341.227 26.8779L341.777 27.2461L359.062 38.7715V31.7305L359.508 31.4336L378.348 18.8701L378.898 18.5029L379.451 18.8662L397.219 30.5449L414.986 18.8662L415.539 18.5029L416.09 18.8701L433.375 30.3965V23.3545L433.82 23.0576L452.66 10.4951L453.211 10.127L453.764 10.4912L471.531 22.1699L489.299 10.4912L489.852 10.127L490.402 10.4951L507.688 22.0205V14.9795L508.133 14.6826L526.973 2.11914L527.523 1.75195L528.076 2.11523L545.844 13.7939L563.611 2.11523L564.164 1.75195L564.715 2.11914L582 13.6455V6.60352L582.445 6.30664L591.903 0H595.507L584 7.67285V29.3926L601.302 18.3359L601.848 17.9873L602.389 18.3428L620.156 30.0215L637.924 18.3428L638.465 17.9873L639.011 18.3359L656.312 29.3926V7.67285L644.805 0H648.409L656.312 5.26953V0H658.312V21.0166L675.614 9.96094L676.16 9.61133L676.701 9.96777L694.469 21.6455L712.236 9.96777L712.777 9.61133L713.323 9.96094L730.625 21.0166V0H732.625V12.6416L749.927 1.58496L750.473 1.23633L751.014 1.5918L768.781 13.2705L786.549 1.5918L787.09 1.23633L787.636 1.58496L804.938 12.6416V0H806.938V4.26562L813.613 0H817.325L806.938 6.63867V13.4678H879.25V6.63867L868.861 0H872.574L879.25 4.26562V0H881.25V5.0918H953.562V0H955.562V5.0918H1027.88V0H1029.88V7.0918ZM1066.58 107.434L1066.03 107.794L1065.48 107.434L1047.71 95.749L1029.88 107.145V113.973H1102.19V107.145L1084.36 95.749L1066.58 107.434ZM992.268 91.2061L991.719 91.5664L991.17 91.2061L973.405 79.5293L955.562 91.4277V113.146L972.864 102.091L973.41 101.741L973.951 102.098L991.719 113.776L1009.49 102.098L1010.03 101.741L1010.57 102.091L1027.88 113.146V91.4277L1010.03 79.5293L992.268 91.2061ZM546.393 103.245L545.844 103.606L545.295 103.245L527.519 91.5615L509.688 102.956V109.785H582V102.956L564.168 91.5615L546.393 103.245ZM584 109.785H656.312V103.41H584V109.785ZM472.08 87.0176L471.531 87.3789L470.982 87.0176L453.218 75.3418L435.375 87.2402V108.959L452.677 97.9033L453.223 97.5537L453.764 97.9102L471.531 109.588L489.299 97.9102L489.84 97.5537L490.386 97.9033L507.688 108.959V87.2402L489.844 75.3418L472.08 87.0176ZM63.8125 105.598H136.125V99.2217H63.8125V105.598ZM1066.58 82.8301L1066.03 83.1914L1065.48 82.8301L1047.72 71.1533L1029.88 83.0518V104.771L1047.18 93.7148L1047.72 93.3662L1048.26 93.7217L1066.03 105.4L1083.8 93.7217L1084.34 93.3662L1084.89 93.7148L1102.19 104.771V83.0518L1084.34 71.1533L1066.58 82.8301ZM620.705 94.8701L620.156 95.2314L619.607 94.8701L601.831 83.1855L584 94.5811V101.41H656.312V94.5811L638.48 83.1855L620.705 94.8701ZM658.312 101.41H730.625V95.0342H658.312V101.41ZM546.393 78.6426L545.844 79.0039L545.295 78.6426L527.531 66.9658L509.688 78.8643V100.584L526.989 89.5273L527.535 89.1787L528.076 89.5342L545.844 101.213L563.611 89.5342L564.152 89.1787L564.698 89.5273L582 100.584V78.8643L564.155 66.9658L546.393 78.6426ZM100.518 90.6826L99.9688 91.043L99.4199 90.6826L81.6436 78.998L63.8125 90.3936V97.2217H136.125V90.3936L118.293 78.998L100.518 90.6826ZM138.125 97.2217H210.438V90.8467H138.125V97.2217ZM695.018 86.4941L694.469 86.8555L693.92 86.4941L676.144 74.8105L658.312 86.2061V93.0342H730.625V86.2061L712.793 74.8105L695.018 86.4941ZM732.625 93.0342H804.938V86.6592H732.625V93.0342ZM620.705 70.2666L620.156 70.6279L619.607 70.2666L601.843 58.5908L584 70.4893V92.208L601.302 81.1523L601.848 80.8027L602.389 81.1592L620.156 92.8369L637.924 81.1592L638.465 80.8027L639.011 81.1523L656.312 92.208V70.4893L638.469 58.5908L620.705 70.2666ZM174.83 82.3066L174.281 82.668L173.732 82.3066L155.957 70.623L138.125 82.0176V88.8467H210.438V82.0176L192.604 70.623L174.83 82.3066ZM212.438 88.8467H284.75V82.4707H212.438V88.8467ZM100.518 66.0791L99.9688 66.4404L99.4199 66.0791L81.6553 54.4033L63.8125 66.3018V88.0205L81.1143 76.9639L81.6602 76.6152L82.2012 76.9717L99.9688 88.6494L117.736 76.9717L118.277 76.6152L118.823 76.9639L136.125 88.0205V66.3018L118.281 54.4033L100.518 66.0791ZM769.33 78.1191L768.781 78.4805L768.232 78.1191L750.456 66.4346L732.625 77.8301V84.6592H804.938V77.8301L787.105 66.4346L769.33 78.1191ZM806.938 84.6592H879.25V78.2832H806.938V84.6592ZM695.018 61.8916L694.469 62.2529L693.92 61.8916L676.156 50.2148L658.312 62.1133V83.833L675.614 72.7764L676.16 72.4277L676.701 72.7832L694.469 84.4619L712.236 72.7832L712.777 72.4277L713.323 72.7764L730.625 83.833V62.1133L712.78 50.2148L695.018 61.8916ZM249.143 73.9316L248.594 74.292L248.045 73.9316L230.269 62.2471L212.438 73.6426V80.4707H284.75V73.6426L266.918 62.2471L249.143 73.9316ZM286.75 80.4707H359.062V74.0957H286.75V80.4707ZM174.83 57.7041L174.281 58.0645L173.732 57.7041L155.968 46.0273L138.125 57.9258V79.6455L155.427 68.5889L155.973 68.2393L156.514 68.5957L174.281 80.2744L192.049 68.5957L192.59 68.2393L193.136 68.5889L210.438 79.6455V57.9258L192.594 46.0273L174.83 57.7041ZM843.643 69.7432L843.094 70.1045L842.545 69.7432L824.769 58.0596L806.938 69.4551V76.2832H879.25V69.4551L861.418 58.0596L843.643 69.7432ZM881.25 76.2832H953.562V69.9082H881.25V76.2832ZM769.33 53.5166L768.781 53.877L768.232 53.5166L750.468 41.8398L732.625 53.7383V75.457L749.927 64.4014L750.473 64.0518L751.014 64.4082L768.781 76.0859L786.549 64.4082L787.09 64.0518L787.636 64.4014L804.938 75.457V53.7383L787.094 41.8398L769.33 53.5166ZM323.455 65.5557L322.906 65.917L322.357 65.5557L304.581 53.8721L286.75 65.2666V72.0957H359.062V65.2666L341.23 53.8721L323.455 65.5557ZM361.062 72.0957H433.375V65.7207H361.062V72.0957ZM249.143 49.3281L248.594 49.6895L248.045 49.3281L230.28 37.6523L212.438 49.5508V71.2695L229.739 60.2129L230.285 59.8643L230.826 60.2207L248.594 71.8984L266.361 60.2207L266.902 59.8643L267.448 60.2129L284.75 71.2695V49.5508L266.906 37.6523L249.143 49.3281ZM917.955 61.3682L917.406 61.7295L916.857 61.3682L899.081 49.6836L881.25 61.0791V67.9082H953.562V61.0791L935.73 49.6836L917.955 61.3682ZM955.562 67.9082H1027.88V61.5322H955.562V67.9082ZM843.643 45.1406L843.094 45.502L842.545 45.1406L824.781 33.4639L806.938 45.3623V67.082L824.239 56.0254L824.785 55.6768L825.326 56.0322L843.094 67.7109L860.861 56.0322L861.402 55.6768L861.948 56.0254L879.25 67.082V45.3623L861.405 33.4639L843.643 45.1406ZM397.768 57.1807L397.219 57.541L396.67 57.1807L378.894 45.4961L361.062 56.8916V63.7207H433.375V56.8916L415.543 45.4961L397.768 57.1807ZM435.375 63.7207H507.688V57.3447H435.375V63.7207ZM323.455 40.9531L322.906 41.3145L322.357 40.9531L304.593 29.2764L286.75 41.1748V62.8945L304.052 51.8379L304.598 51.4893L305.139 51.8447L322.906 63.5234L340.674 51.8447L341.215 51.4893L341.761 51.8379L359.062 62.8945V41.1748L341.219 29.2764L323.455 40.9531ZM992.268 52.9932L991.719 53.3535L991.17 52.9932L973.394 41.3086L955.562 52.7041V59.5322H1027.88V52.7041L1010.04 41.3086L992.268 52.9932ZM1029.88 59.5322H1102.19V53.1572H1029.88V59.5322ZM917.955 36.7656L917.406 37.126L916.857 36.7656L899.093 25.0889L881.25 36.9873V58.7061L898.552 47.6504L899.098 47.3008L899.639 47.6572L917.406 59.3359L935.174 47.6572L935.715 47.3008L936.261 47.6504L953.562 58.7061V36.9873L935.719 25.0889L917.955 36.7656ZM472.08 48.8047L471.531 49.166L470.982 48.8047L453.206 37.1211L435.375 48.5156V55.3447H507.688V48.5156L489.855 37.1211L472.08 48.8047ZM509.688 55.3447H582V48.9697H509.688V55.3447ZM397.768 32.5771L397.219 32.9385L396.67 32.5771L378.905 20.9014L361.062 32.7998V54.5186L378.364 43.4629L378.91 43.1133L379.451 43.4697L397.219 55.1475L414.986 43.4697L415.527 43.1133L416.073 43.4629L433.375 54.5186V32.7998L415.531 20.9014L397.768 32.5771ZM509.688 2.9043H435.375V11.2803H361.062V19.6553H286.75V28.0303H212.438V36.4062H138.125V44.7812H63.8125V53.1572H0V51.1572H61.8125V44.7812H0V42.7812H61.8125V35.9531L43.9805 24.5576L26.2051 36.2422L25.6562 36.6025L25.1074 36.2422L7.33105 24.5576L0 29.2422V26.8691L6.80176 22.5234L7.34766 22.1748L7.88867 22.5312L25.6562 34.209L43.4238 22.5312L43.9648 22.1748L44.5107 22.5234L61.8125 33.5801V11.8613L44.0244 0H47.6289L61.8125 9.45801V2.41602L62.2578 2.11914L65.4355 0H69.0391L63.8125 3.48535V25.2051L81.1143 14.1484L81.6602 13.7988L82.2012 14.1553L99.9688 25.834L117.736 14.1553L118.277 13.7988L118.823 14.1484L136.125 25.2051V3.48535L130.898 0H134.502L136.125 1.08203V0H138.125V16.8291L155.427 5.77246L155.973 5.42383L156.514 5.78027L174.281 17.458L192.049 5.78027L192.59 5.42383L193.136 5.77246L210.438 16.8291V0H212.438V8.4541L225.667 0H229.379L212.438 10.8262V17.6553H284.75V10.8262L267.808 0H271.521L284.75 8.4541V0H286.75V0.078125L286.872 0H290.586L286.75 2.45117V9.28027H359.062V2.45117L355.227 0H358.94L359.062 0.078125V0H361.062V0.904297H433.375V0H435.375V0.904297H507.688V0H509.688V2.9043ZM1029.88 44.3281V51.1572H1102.19V44.3281L1084.35 32.9336L1066.58 44.6172L1066.03 44.9785L1065.48 44.6172L1047.71 32.9326L1029.88 44.3281ZM992.268 28.3896L991.719 28.751L991.17 28.3896L973.406 16.7129L955.562 28.6113V50.3311L972.864 39.2744L973.41 38.9258L973.951 39.2812L991.719 50.96L1009.49 39.2812L1010.03 38.9258L1010.57 39.2744L1027.88 50.3311V28.6113L1010.03 16.7129L992.268 28.3896ZM546.393 40.4297L545.844 40.791L545.295 40.4297L527.519 28.7451L509.688 40.1406V46.9697H582V40.1406L564.168 28.7451L546.393 40.4297ZM584 46.9697H656.312V40.5938H584V46.9697ZM472.08 24.2021L471.531 24.5635L470.982 24.2021L453.219 12.5254L435.375 24.4238V46.1436L452.677 35.0869L453.223 34.7383L453.764 35.0938L471.531 46.7725L489.299 35.0938L489.84 34.7383L490.386 35.0869L507.688 46.1436V24.4238L489.843 12.5254L472.08 24.2021ZM63.8125 42.7812H136.125V36.4062H63.8125V42.7812ZM1066.58 20.0146L1066.03 20.375L1065.48 20.0146L1047.72 8.33789L1029.88 20.2363V41.9551L1047.18 30.8994L1047.72 30.5498L1048.26 30.9062L1066.03 42.585L1083.8 30.9062L1084.34 30.5498L1084.89 30.8994L1102.19 41.9551V20.2363L1084.34 8.33789L1066.58 20.0146ZM620.705 32.0537L620.156 32.415L619.607 32.0537L601.831 20.3701L584 31.7656V38.5938H656.312V31.7656L638.48 20.3701L620.705 32.0537ZM658.312 38.5938H730.625V32.2188H658.312V38.5938ZM546.393 15.8262L545.844 16.1875L545.295 15.8262L527.53 4.15039L509.688 16.0488V37.7676L526.989 26.7119L527.535 26.3623L528.076 26.7188L545.844 38.3965L563.611 26.7188L564.152 26.3623L564.698 26.7119L582 37.7676V16.0488L564.156 4.15039L546.393 15.8262ZM100.518 27.8662L99.9688 28.2275L99.4199 27.8662L81.6445 16.1826L63.8125 27.5771V34.4062H136.125V27.5771L118.292 16.1826L100.518 27.8662ZM138.125 34.4062H210.438V28.0303H138.125V34.4062ZM695.018 23.6787L694.469 24.04L693.92 23.6787L676.144 11.9941L658.312 23.3896V30.2188H730.625V23.3896L712.793 11.9941L695.018 23.6787ZM732.625 30.2188H804.938V23.8428H732.625V30.2188ZM174.83 19.4912L174.281 19.8516L173.732 19.4912L155.956 7.80664L138.125 19.2021V26.0303H210.438V19.2021L192.605 7.80664L174.83 19.4912ZM212.438 26.0303H284.75V19.6553H212.438V26.0303ZM769.33 15.3027L768.781 15.6641L768.232 15.3027L750.456 3.61914L732.625 15.0146V21.8428H804.938V15.0146L787.105 3.61914L769.33 15.3027ZM806.938 21.8428H879.25V15.4678H806.938V21.8428ZM286.75 17.6553H359.062V11.2803H286.75V17.6553ZM881.25 13.4678H953.562V7.0918H881.25V13.4678ZM26.2051 11.6387L25.6562 12L25.1074 11.6387L7.39941 0H11.041L25.6562 9.60645L40.2715 0H43.9121L26.2051 11.6387ZM1140 9.37988V11.7734L1139.79 11.6387L1122.09 0H1125.73L1140 9.37988ZM249.143 11.1152L248.594 11.4766L248.045 11.1152L231.134 0H234.775L248.594 9.08301L262.412 0H266.054L249.143 11.1152ZM361.062 9.28027H433.375V2.9043H361.062V9.28027ZM620.705 7.45117L620.156 7.8125L619.607 7.45117L608.272 0H611.912L620.156 5.41895L628.4 0H632.04L620.705 7.45117ZM843.643 6.92773L843.094 7.28906L842.545 6.92773L832.006 0H835.646L843.094 4.89551L850.542 0H854.182L843.643 6.92773ZM0 4.85938V2.45605L3.68359 0H7.28711L0 4.85938ZM100.518 3.26367L99.9688 3.62402L99.4199 3.26367L94.4551 0H98.0967L99.9688 1.23047L101.841 0H105.482L100.518 3.26367ZM323.455 2.74023L322.906 3.10059L322.357 2.74023L318.188 0H321.83L322.906 0.707031L323.982 0H327.624L323.455 2.74023Z" fill="url(#paint0_linear_373_1372)"/>
<defs>
<linearGradient id="paint0_linear_373_1372" x1="0" y1="166" x2="1140" y2="166" gradientUnits="userSpaceOnUse">
<stop offset="0.259201" stop-color="#FFD900" stop-opacity="0.5"/>
<stop offset="1" stop-color="white" stop-opacity="0.15"/>
</linearGradient>
</defs>
</svg>
