<svg width="120" height="98" viewBox="0 0 120 98" fill="none" xmlns="http://www.w3.org/2000/svg">
<path d="M89 14C93.4183 14 97 17.5817 97 22V78C97 78.5304 96.7891 79.039 96.4141 79.4141L78.4141 97.4141C78.039 97.7891 77.5304 98 77 98H37C32.5817 98 29 94.4183 29 90V22C29 17.5817 32.5817 14 37 14H89ZM37 18C34.7909 18 33 19.7909 33 22V90C33 92.2091 34.7909 94 37 94H75V82C75 78.6863 77.6863 76 81 76H93V22C93 19.7909 91.2091 18 89 18H37ZM81 80C79.8954 80 79 80.8954 79 82V91.1719L90.1719 80H81ZM48.5342 69.6387C49.2858 68.8296 50.552 68.7827 51.3613 69.5342C52.1705 70.2857 52.2172 71.552 51.4658 72.3613L44.9658 79.3613C44.5962 79.7593 44.0801 79.9899 43.5371 80C42.994 80.0101 42.4701 79.7982 42.0859 79.4141L38.5859 75.9141C37.805 75.133 37.8049 73.867 38.5859 73.0859C39.367 72.3051 40.6331 72.305 41.4141 73.0859L43.4453 75.1172L48.5342 69.6387ZM69 76C70.1044 76.0001 70.9999 76.8956 71 78C71 79.1045 70.1045 79.9999 69 80H59C57.8955 80 57 79.1045 57 78C57.0001 76.8955 57.8955 76 59 76H69ZM77 69C78.1044 69.0001 78.9999 69.8956 79 71C79 72.1045 78.1045 72.9999 77 73H59C57.8955 73 57 72.1045 57 71C57.0001 69.8955 57.8955 69 59 69H77ZM48.5342 49.6387C49.2858 48.8296 50.552 48.7827 51.3613 49.5342C52.1705 50.2857 52.2172 51.552 51.4658 52.3613L44.9658 59.3613C44.5962 59.7593 44.0801 59.9899 43.5371 60C42.994 60.0101 42.4701 59.7982 42.0859 59.4141L38.5859 55.9141C37.805 55.133 37.8049 53.867 38.5859 53.0859C39.367 52.3051 40.6331 52.305 41.4141 53.0859L43.4453 55.1172L48.5342 49.6387ZM69 56C70.1044 56.0001 70.9999 56.8956 71 58C70.9999 59.1045 70.1045 59.9999 69 60H59C57.8955 60 57.0001 59.1045 57 58C57.0001 56.8955 57.8955 56 59 56H69ZM82 49C83.1044 49.0001 83.9999 49.8956 84 51C83.9999 52.1045 83.1045 52.9999 82 53H59C57.8955 53 57.0001 52.1045 57 51C57.0001 49.8955 57.8955 49 59 49H82ZM82 36C83.1044 36.0001 83.9999 36.8956 84 38C83.9999 39.1044 83.1044 39.9999 82 40H59C57.8956 39.9999 57.0001 39.1044 57 38C57.0001 36.8956 57.8956 36.0001 59 36H82ZM73 29C74.1044 29.0001 74.9999 29.8956 75 31C74.9999 32.1044 74.1044 32.9999 73 33H59C57.8956 32.9999 57.0001 32.1044 57 31C57.0001 29.8956 57.8956 29.0001 59 29H73Z" fill="#1F1E1E"/>
<circle cx="27" cy="27" r="25" fill="#EDF1F4" stroke="#FFD900" stroke-width="4"/>
<path fill-rule="evenodd" clip-rule="evenodd" d="M33.8432 12.3401C32.0677 10.993 29.4899 11.2889 28.0923 13.0559L22.1372 20.5882C21.6395 20.3519 21.098 20.2133 20.56 20.1888L20.3843 20.1848L16.2143 20.1839C14.3415 20.1839 12.3444 21.5629 12.3442 23.8157V36.3391C12.3446 38.5916 14.3414 39.9719 16.2143 39.972H20.3843C21.0194 39.9719 21.6685 39.8124 22.2495 39.5149C22.7967 39.8066 23.4187 39.9709 24.0669 39.971H33.063C36.1054 39.9708 38.8161 37.9066 39.4575 34.9075L41.5649 25.053C42.14 22.3625 40.0002 20.0144 37.3901 20.0139H33.9253L35.144 17.0071C35.8281 15.3189 35.2693 13.4225 33.8432 12.3401ZM20.2544 24.1839V35.972H16.3442V24.1839H20.2544ZM31.311 15.5003C31.363 15.494 31.4018 15.509 31.4253 15.5266L31.4262 15.5276L29.102 21.263C28.8522 21.8794 28.9257 22.5804 29.2973 23.1321C29.669 23.6836 30.2905 24.0138 30.9555 24.0139H37.3901C37.5039 24.0141 37.5781 24.0609 37.6196 24.1097C37.6403 24.1341 37.6501 24.1559 37.6538 24.1692C37.6565 24.1794 37.6586 24.1931 37.6538 24.2161L35.5464 34.0716C35.3206 35.1265 34.3215 35.9708 33.063 35.971H24.2544V25.136C24.2544 24.639 24.4236 24.1467 24.7485 23.7356L31.23 15.5374C31.2373 15.5283 31.2597 15.5066 31.311 15.5003Z" fill="#1F1E1E"/>
</svg>
