<svg width="120" height="102" viewBox="0 0 120 102" fill="none" xmlns="http://www.w3.org/2000/svg">
<path d="M49 19C47.8954 19 47 19.8954 47 21V55H32V39C32 37.8954 31.1046 37 30 37H18C16.8954 37 16 37.8954 16 39C16 40.1046 16.8954 41 18 41H28V84.2256C23.9923 85.1352 21 88.717 21 93C21 97.9706 25.0294 102 30 102C33.5334 102 36.5896 99.963 38.0625 97H118C119.105 97 120 96.1046 120 95C120 93.8954 119.105 93 118 93H112V57C112 55.8954 111.105 55 110 55H93V21C93 19.8954 92.1046 19 91 19H49ZM30 88C32.7614 88 35 90.2386 35 93C35 95.7614 32.7614 98 30 98C27.2386 98 25 95.7614 25 93C25 90.2386 27.2386 88 30 88ZM108 93H72V59H81V68C81 69.1046 81.8954 70 83 70H95C96.1046 70 97 69.1046 97 68V59H108V93ZM68 93H39C39 88.717 36.0077 85.1352 32 84.2256V59H43V68C43 69.1046 43.8954 70 45 70H57C58.1046 70 59 69.1046 59 68V59H68V93ZM93 66H85V59H93V66ZM55 66H47V59H55V66ZM89 55H51V23H62V32C62 33.1046 62.8954 34 64 34H76C77.1046 34 78 33.1046 78 32V23H89V55ZM74 30H66V23H74V30Z" fill="#1F1E1E"/>
<circle cx="29" cy="29" r="27" fill="#EDF1F4" stroke="#FFD900" stroke-width="4"/>
<path fill-rule="evenodd" clip-rule="evenodd" d="M37 28.5001C40.3137 28.5001 43 31.1864 43 34.5001V36.5001C43 39.8138 40.3137 42.5001 37 42.5001C33.6863 42.5001 31 39.8138 31 36.5001V34.5001C31 31.1864 33.6863 28.5001 37 28.5001ZM35.917 16.7774C36.5923 15.9035 37.8486 15.742 38.7227 16.4171C39.5965 17.0924 39.7581 18.3488 39.083 19.2228L22.083 41.2228C21.4077 42.0966 20.1513 42.2581 19.2773 41.5831C18.4034 40.9078 18.242 39.6515 18.917 38.7774L35.917 16.7774ZM37 32.5001C35.8954 32.5001 35 33.3955 35 34.5001V36.5001C35 37.6047 35.8954 38.5001 37 38.5001C38.1046 38.5001 39 37.6047 39 36.5001V34.5001C39 33.3955 38.1046 32.5001 37 32.5001ZM21 16.0001C24.3137 16.0001 27 18.6864 27 22.0001V24.0001C27 27.3138 24.3137 30.0001 21 30.0001C17.6863 30.0001 15 27.3138 15 24.0001V22.0001C15 18.6864 17.6863 16.0001 21 16.0001ZM21 20.0001C19.8954 20.0001 19 20.8955 19 22.0001V24.0001C19 25.1047 19.8954 26.0001 21 26.0001C22.1046 26.0001 23 25.1047 23 24.0001V22.0001C23 20.8955 22.1046 20.0001 21 20.0001Z" fill="#1F1E1E"/>
</svg>
