<svg width="120" height="100" viewBox="0 0 120 100" fill="none" xmlns="http://www.w3.org/2000/svg">
<path fill-rule="evenodd" clip-rule="evenodd" d="M79.4844 17.7769C77.6656 15.8814 74.7649 15.2705 72.2646 16.4761L57.4072 23.6421H32.5547C27.032 23.6423 22.5547 28.1194 22.5547 33.6421V39.2877C22.5547 39.3884 22.5657 39.4868 22.5801 39.5836C22.5652 39.8063 22.5547 40.0309 22.5547 40.2574V82.147C22.5547 87.6698 27.032 92.1468 32.5547 92.147H94.1074C99.63 92.1467 104.107 87.6697 104.107 82.147V73.1265H105.454C108.768 73.1264 111.454 70.4401 111.454 67.1265V56.9322C111.454 53.6188 108.768 50.9323 105.454 50.9322H104.107V40.2574C104.107 35.1221 100.235 30.892 95.252 30.3238L91.0225 21.2222C89.1419 17.1743 84.3123 15.4485 80.292 17.3873L79.4844 17.7769ZM94.1074 34.2574C97.4206 34.2577 100.107 36.9441 100.107 40.2574V50.9322H85.8975C79.7689 50.9322 74.8009 55.9013 74.8008 62.0298C74.801 68.1583 79.769 73.1265 85.8975 73.1265H100.107V82.147C100.107 85.4605 97.4209 88.1467 94.1074 88.147H32.5547C29.2411 88.1468 26.5547 85.4606 26.5547 82.147V40.2574C26.5549 36.944 29.2413 34.2576 32.5547 34.2574H94.1074ZM105.454 54.9322C106.558 54.9323 107.454 55.8279 107.454 56.9322V67.1265C107.454 68.231 106.559 69.1264 105.454 69.1265H85.8975C81.9781 69.1265 78.801 65.9492 78.8008 62.0298C78.8009 58.1104 81.978 54.9322 85.8975 54.9322H105.454ZM86.5967 58.7212C84.7933 58.7212 83.3311 60.2029 83.3311 62.0298C83.3311 63.8567 84.7933 65.3375 86.5967 65.3375C88.4 65.3374 89.8622 63.8567 89.8623 62.0298C89.8623 60.2029 88.4 58.7213 86.5967 58.7212ZM43.6914 30.2574H32.5547C30.3907 30.2575 28.3885 30.9473 26.752 32.1158C27.4271 29.5413 29.7685 27.6423 32.5547 27.6421H49.1133L43.6914 30.2574ZM82.0293 20.9898C84.0394 20.0205 86.4543 20.8839 87.3945 22.9078L90.8096 30.2574H85.6533L81.4727 21.2584L82.0293 20.9898ZM74.002 20.0796C75.1303 19.5357 76.4858 20.0199 77.0137 21.1558L81.2422 30.2574H52.8984L74.002 20.0796Z" fill="#1F1E1E"/>
<circle cx="29" cy="29" r="27" fill="#EDF1F4" stroke="#FFD900" stroke-width="4"/>
<path d="M26.118 17.21V44.2524M21.4376 17.21H33.0574C36.9079 17.21 40.0293 20.3314 40.0293 24.1818C40.0293 28.0323 36.9079 31.1537 33.0574 31.1537H21.4376M21.4376 36.5763H30.7984" stroke="#1F1E1E" stroke-width="4" stroke-linecap="round" stroke-linejoin="round"/>
</svg>
