<svg width="120" height="98" viewBox="0 0 120 98" fill="none" xmlns="http://www.w3.org/2000/svg">
<path fill-rule="evenodd" clip-rule="evenodd" d="M40.7021 28.3213C42.9979 26.9186 45.6012 27.6877 47.623 28.7715C49.7352 29.9038 51.899 31.7291 53.8496 33.6377C57.3839 37.0958 60.5582 41.1711 61.9443 43H76C78.2091 43 80 44.7909 80 47V50C80 52.1945 78.2328 53.9745 76.0439 53.998L73.334 88.1582C73.2514 89.1981 72.383 90 71.3398 90H34.1973C33.1541 90 32.2857 89.1981 32.2031 88.1582L29.4912 53.9893C27.4115 53.8468 25.7686 52.1159 25.7686 50V47C25.7686 44.7909 27.5594 43 29.7686 43H43.2881C43.1554 42.8079 43.0225 42.6165 42.8926 42.4238C41.2584 40.0014 39.7504 37.3974 39.0254 35.0947C38.664 33.9467 38.4412 32.7024 38.6191 31.5156C38.8107 30.2389 39.468 29.0755 40.7021 28.3213ZM107.324 17.7686C110.638 17.7688 113.324 20.455 113.324 23.7686V24.0078C117.04 24.1772 120 27.2428 120 31V36.3467C120 39.7505 117.551 42.6608 114.197 43.2432L94.4219 46.6768C92.5054 47.0095 91.1055 48.6731 91.1055 50.6182V55.6211H93.4062C94.5106 55.6213 95.4062 56.5167 95.4062 57.6211V85.7236C95.4059 87.9324 93.615 89.7235 91.4062 89.7236H86.8057C84.5968 89.7236 82.806 87.9324 82.8057 85.7236V57.6211C82.8057 56.5166 83.7011 55.6211 84.8057 55.6211H87.1055V50.6182C87.1055 46.7279 89.9044 43.4018 93.7373 42.7363L113.514 39.3027C114.951 39.053 116 37.8053 116 36.3467V31C116 29.4528 114.828 28.1792 113.324 28.0176V28.6689C113.324 31.9824 110.638 34.6687 107.324 34.6689H70.1709C66.8573 34.6689 64.171 31.9825 64.1709 28.6689V23.7686C64.1709 20.4548 66.8572 17.7686 70.1709 17.7686H107.324ZM36.0439 86H69.4932L72.0322 54H60.7441C59.8585 57.3946 56.7716 59.9004 53.0996 59.9004H52.9541C49.2821 59.9003 46.1952 57.3946 45.3096 54H33.5049L36.0439 86ZM86.8057 85.7236H91.4062V67.3545H86.8057V85.7236ZM86.8057 63.3545H91.4062V59.6211H86.8057V63.3545ZM29.7686 50H47.0547C48.1591 50.0002 49.0547 50.8956 49.0547 52C49.0547 54.1538 50.8003 55.9003 52.9541 55.9004H53.0996C55.2535 55.9004 57 54.1539 57 52C57 50.8954 57.8954 50 59 50H76V47H51.373C52.8097 48.7401 53.9945 50.0868 54.5186 50.6982C55.2371 51.5368 55.1401 52.7998 54.3018 53.5186C53.4633 54.2371 52.2013 54.1398 51.4824 53.3018C50.7759 52.4775 48.5975 50.0193 46.2402 47H29.7686V50ZM45.7334 32.2969C44.0268 31.3821 43.1801 31.4951 42.7881 31.7344C42.6785 31.8013 42.6122 31.8621 42.5752 32.1084C42.5247 32.4449 42.567 33.0238 42.8408 33.8936C43.3865 35.6266 44.6262 37.8403 46.209 40.1865C46.8501 41.1369 47.5303 42.0836 48.2158 43H56.8672C55.3261 41.086 53.2547 38.6515 51.0518 36.4961C49.1954 34.6798 47.3499 33.1635 45.7334 32.2969ZM70.1709 21.7686C69.0663 21.7686 68.1709 22.664 68.1709 23.7686V28.6689C68.171 29.7734 69.0664 30.6689 70.1709 30.6689H107.324C108.428 30.6687 109.324 29.7733 109.324 28.6689V23.7686C109.324 22.6641 108.429 21.7688 107.324 21.7686H70.1709Z" fill="#1F1E1E"/>
<circle cx="27" cy="27" r="25" fill="#EDF1F4" stroke="#FFD900" stroke-width="4"/>
<path fill-rule="evenodd" clip-rule="evenodd" d="M16 13.9707C14.3434 13.9708 13.0002 15.3141 13 16.9707V29.3906C13 33.24 14.3163 36.2026 16.5537 38.5205C18.7199 40.7645 21.6633 42.3146 24.7744 43.5986C26.2154 44.1933 27.8343 44.1737 29.2588 43.5566C32.2051 42.2803 35.133 40.7361 37.3262 38.5156C39.59 36.2235 41.0137 33.2686 41.0137 29.3906V16.9707C41.0135 15.3141 39.6702 13.9709 38.0137 13.9707H16ZM37.0137 17.9707V29.3906C37.0137 32.1565 36.048 34.1179 34.4805 35.7051C32.8423 37.3636 30.4952 38.6624 27.6689 39.8867C27.2309 40.0764 26.7362 40.08 26.3008 39.9004C23.3426 38.6795 21.0167 37.3841 19.4316 35.7422C17.9181 34.1742 17 32.2093 17 29.3906V17.9707H37.0137ZM34.8887 23.0332C34.1093 22.2509 32.8432 22.2481 32.0605 23.0273L25.8682 29.1924L23.7598 27.2061C22.9557 26.4492 21.6898 26.4871 20.9326 27.291C20.1755 28.095 20.2138 29.3608 21.0176 30.1182L23.8311 32.7686C25.0099 33.8786 26.8574 33.8525 28.0049 32.71L34.8828 25.8613C35.6654 25.082 35.668 23.8159 34.8887 23.0332Z" fill="#1F1E1E"/>
</svg>
