<svg width="8" height="980" viewBox="0 0 8 980" fill="none" xmlns="http://www.w3.org/2000/svg">
<path d="M4.18164 980H3.18164V975.993H4.18164V980ZM4.18164 967.977H3.18164V959.96H4.18164V967.977ZM4.18164 951.943H3.18164V943.928H4.18164V951.943ZM4.18164 935.911H3.18164V927.895H4.18164V935.911ZM4.18164 919.878H3.18164V911.861H4.18164V919.878ZM4.18164 903.846H3.18164V895.829H4.18164V903.846ZM4.18164 887.812H3.18164V879.796H4.18164V887.812ZM4.18164 871.779H3.18164V863.763H4.18164V871.779ZM4.18164 855.747H3.18164V847.73H4.18164V855.747ZM4.18164 839.714H3.18164V831.697H4.18164V839.714ZM4.18164 823.681H3.18164V815.665H4.18164V823.681ZM4.18164 806.292L6.50977 803.964C6.70491 803.769 7.02152 803.769 7.2168 803.964C7.41203 804.159 7.41201 804.476 7.2168 804.671L4.03516 807.854C3.83993 808.049 3.52336 808.049 3.32812 807.854L0.146484 804.671C-0.048753 804.476 -0.0487695 804.159 0.146484 803.964C0.341767 803.769 0.658381 803.769 0.853516 803.964L3.18164 806.292V751.5H4.18164V806.292ZM4.18164 743.517H3.18164V735.5H4.18164V743.517ZM4.18164 727.484H3.18164V719.468H4.18164V727.484ZM4.18164 711.451H3.18164V703.435H4.18164V711.451ZM4.18164 695.418H3.18164V687.402H4.18164V695.418ZM4.18164 679.386H3.18164V671.369H4.18164V679.386ZM4.18164 663.353H3.18164V655.336H4.18164V663.353ZM4.18164 647.32H3.18164V639.304H4.18164V647.32ZM4.18164 631.287H3.18164V623.271H4.18164V631.287ZM4.18164 615.254H3.18164V607.237H4.18164V615.254ZM4.18164 599.222H3.18164V591.205H4.18164V599.222ZM4.18164 583.188H3.18164V575.172H4.18164V583.188ZM4.18164 567.155H3.18164V559.14H4.18164V567.155ZM4.18164 549.787L6.50977 547.459C6.70497 547.264 7.02153 547.264 7.2168 547.459C7.41203 547.654 7.41203 547.971 7.2168 548.166L4.03516 551.348C3.8399 551.543 3.52339 551.543 3.32812 551.348L0.146484 548.166C-0.0487778 547.971 -0.0487778 547.654 0.146484 547.459C0.341763 547.264 0.658323 547.264 0.853516 547.459L3.18164 549.787V478.976H4.18164V549.787ZM4.18164 470.959H3.18164V462.942H4.18164V470.959ZM4.18164 454.926H3.18164V446.909H4.18164V454.926ZM4.18164 438.894H3.18164V430.877H4.18164V438.894ZM4.18164 422.86H3.18164V414.844H4.18164V422.86ZM4.18164 406.828H3.18164V398.812H4.18164V406.828ZM4.18164 390.795H3.18164V382.778H4.18164V390.795ZM4.18164 374.762H3.18164V366.746H4.18164V374.762ZM4.18164 358.729H3.18164V350.713H4.18164V358.729ZM4.18164 342.696H3.18164V334.681H4.18164V342.696ZM4.18164 326.664H3.18164V318.647H4.18164V326.664ZM4.18164 310.631H3.18164V302.614H4.18164V310.631ZM4.18164 294.599H3.18164V286.582H4.18164V294.599ZM4.18164 278.289L6.50977 275.961C6.70497 275.766 7.02153 275.766 7.2168 275.961C7.41203 276.156 7.41203 276.473 7.2168 276.668L4.03516 279.85C3.8399 280.045 3.52339 280.045 3.32812 279.85L0.146484 276.668C-0.0487778 276.473 -0.0487778 276.156 0.146484 275.961C0.341763 275.766 0.658323 275.766 0.853516 275.961L3.18164 278.289V222.451H4.18164V278.289ZM4.18164 214.435H3.18164V206.418H4.18164V214.435ZM4.18164 198.401H3.18164V190.385H4.18164V198.401ZM4.18164 182.369H3.18164V174.353H4.18164V182.369ZM4.18164 166.336H3.18164V158.319H4.18164V166.336ZM4.18164 150.304H3.18164V142.287H4.18164V150.304ZM4.18164 134.271H3.18164V126.254H4.18164V134.271ZM4.18164 118.237H3.18164V110.222H4.18164V118.237ZM4.18164 102.205H3.18164V94.1885H4.18164V102.205ZM4.18164 86.1719H3.18164V78.1553H4.18164V86.1719ZM4.18164 70.1396H3.18164V62.123H4.18164V70.1396ZM4.18164 53.792L6.50977 51.4639C6.70491 51.2688 7.02152 51.269 7.2168 51.4639C7.41202 51.6591 7.41199 51.9756 7.2168 52.1709L4.03516 55.3535C3.83993 55.5486 3.52336 55.5486 3.32812 55.3535L0.146484 52.1709C-0.0487339 51.9756 -0.0487632 51.6591 0.146484 51.4639C0.341764 51.269 0.658384 51.2688 0.853516 51.4639L3.18164 53.792V0H4.18164V53.792Z" fill="#1F1E1E"/>
</svg>
