<svg width="1140" height="176" viewBox="0 0 1140 176" fill="none" xmlns="http://www.w3.org/2000/svg">
<path opacity="0.25" d="M1140 6.26465V8.6582L1127.53 0.462891L1109.69 12.3613V34.0801L1126.99 23.0234L1127.54 22.6748L1128.08 23.0312L1140 30.8682V33.2607L1127.52 25.0576L1109.69 36.4531V43.2812H1140V45.2812H1109.69V51.6572H1140V53.6572H1109.69V62.0322H1035.38V70.4082H961.062V78.7832H886.75V87.1592H812.438V95.5342H738.125V103.91H663.812V112.285H589.5V120.661H515.188V129.036H440.875V137.411H366.562V145.787H292.25V154.162H217.938V162.538H143.625V170.913H69.3125V176H67.3125V170.913H0V168.913H67.3125V162.085L49.4805 150.689L31.7051 162.374L31.1562 162.734L30.6074 162.374L12.8311 150.689L0 158.89V156.517L12.3018 148.655L12.8477 148.307L13.3887 148.662L31.1562 160.341L48.9238 148.662L49.4648 148.307L50.0107 148.655L67.3125 159.712V137.992L49.4678 126.094L31.7051 137.771L31.1562 138.132L30.6074 137.771L12.8438 126.094L0 134.657V132.256L12.2852 124.063L12.8359 123.696L13.3887 124.06L31.1562 135.738L48.9238 124.06L49.4766 123.696L50.0273 124.063L67.3125 135.59V128.548L67.7578 128.251L86.5977 115.688L87.1484 115.32L87.7012 115.685L105.469 127.362L123.236 115.685L123.789 115.32L124.34 115.688L141.625 127.214V120.173L142.07 119.876L160.91 107.312L161.461 106.945L162.014 107.309L179.781 118.987L197.549 107.309L198.102 106.945L198.652 107.312L215.938 118.839V111.797L216.383 111.5L235.223 98.9365L235.773 98.5693L236.326 98.9336L254.094 110.611L271.861 98.9336L272.414 98.5693L272.965 98.9365L290.25 110.463V103.422L290.695 103.125L309.535 90.5615L310.086 90.1943L310.639 90.5576L328.406 102.236L346.174 90.5576L346.727 90.1943L347.277 90.5615L364.562 102.088V95.0459L365.008 94.749L383.848 82.1865L384.398 81.8184L384.951 82.1826L402.719 93.8604L420.486 82.1826L421.039 81.8184L421.59 82.1865L438.875 93.7119V86.6709L439.32 86.374L458.16 73.8105L458.711 73.4434L459.264 73.8066L477.031 85.4854L494.799 73.8066L495.352 73.4434L495.902 73.8105L513.188 85.3369V78.2949L513.633 77.998L532.473 65.4355L533.023 65.0674L533.576 65.4316L551.344 77.1104L569.111 65.4316L569.664 65.0674L570.215 65.4355L587.5 76.9609V69.9199L587.945 69.623L606.785 57.0596L607.336 56.6924L607.889 57.0557L625.656 68.7344L643.424 57.0557L643.977 56.6924L644.527 57.0596L661.812 68.5859V61.5439L662.258 61.2471L681.098 48.6846L681.648 48.3174L682.201 48.6807L699.969 60.3594L717.736 48.6807L718.289 48.3174L718.84 48.6846L736.125 60.21V53.1689L736.57 52.8721L755.41 40.3086L755.961 39.9414L756.514 40.3047L774.281 51.9834L792.049 40.3047L792.602 39.9414L793.152 40.3086L810.438 51.835V44.793L810.883 44.4961L829.723 31.9336L830.273 31.5664L830.826 31.9297L848.594 43.6084L866.361 31.9297L866.914 31.5664L867.465 31.9336L884.75 43.459V36.418L885.195 36.1211L904.035 23.5576L904.586 23.1904L905.139 23.5547L922.906 35.2324L940.674 23.5547L941.227 23.1904L941.777 23.5576L959.062 35.084V28.043L959.508 27.7461L978.348 15.1826L978.898 14.8154L979.451 15.1787L997.219 26.8574L1014.99 15.1787L1015.54 14.8154L1016.09 15.1826L1033.38 26.709V19.667L1033.82 19.3701L1052.66 6.80664L1053.21 6.43945L1053.76 6.80371L1071.53 18.4814L1089.3 6.80371L1089.85 6.43945L1090.4 6.80664L1107.69 18.333V11.292L1108.13 10.9951L1124.62 0H1130.47L1140 6.26465ZM162.014 170.125L170.952 176H167.312L161.468 172.159L155.708 176H152.104L160.91 170.128L161.461 169.761L162.014 170.125ZM198.652 170.128L207.458 176H203.854L198.094 172.159L192.251 176H188.61L197.549 170.125L198.102 169.761L198.652 170.128ZM1128.08 61.2441L1140 69.0811V71.4736L1127.53 63.2783L1109.69 75.1768V96.8965L1126.99 85.8398L1127.54 85.4902L1128.08 85.8467L1140 93.6836V96.0762L1127.52 87.873L1109.69 99.2686V106.098H1140V108.098H1109.69V114.473H1140V116.473H1109.69V124.849H1035.38V133.224H961.062V141.6H886.75V149.975H812.438V158.351H738.125V166.726H663.812V175.102H589.5V176H587.5V175.102H515.188V176H513.188V174.647L495.355 163.253L477.58 174.937L477.031 175.298L476.482 174.937L458.707 163.253L440.875 174.647V176H438.875V158.932L421.031 147.033L403.268 158.709L402.719 159.07L402.17 158.709L384.406 147.033L366.562 158.932V176H364.562V167.307L346.719 155.408L328.955 167.085L328.406 167.445L327.857 167.085L310.094 155.408L292.25 167.307V176H290.25V175.683L272.406 163.784L254.643 175.46L254.094 175.821L253.545 175.46L235.78 163.784L217.938 175.683V176H215.938V174.613L216.383 174.316L235.223 161.753L235.773 161.386L236.326 161.749L254.094 173.428L271.861 161.749L272.414 161.386L272.965 161.753L290.25 173.279V166.237L290.695 165.94L309.535 153.377L310.086 153.01L310.639 153.374L328.406 165.052L346.174 153.374L346.727 153.01L347.277 153.377L364.562 164.903V157.862L365.008 157.565L383.848 145.002L384.398 144.635L384.951 144.998L402.719 156.677L420.486 144.998L421.039 144.635L421.59 145.002L438.875 156.528V149.486L439.32 149.189L458.16 136.627L458.711 136.259L459.264 136.623L477.031 148.301L494.799 136.623L495.352 136.259L495.902 136.627L513.188 148.152V141.111L513.633 140.814L532.473 128.251L533.023 127.884L533.576 128.247L551.344 139.926L569.111 128.247L569.664 127.884L570.215 128.251L587.5 139.777V132.735L587.945 132.438L606.785 119.876L607.336 119.508L607.889 119.872L625.656 131.551L643.424 119.872L643.977 119.508L644.527 119.876L661.812 131.401V124.36L662.258 124.063L681.098 111.5L681.648 111.133L682.201 111.496L699.969 123.175L717.736 111.496L718.289 111.133L718.84 111.5L736.125 123.026V115.984L736.57 115.688L755.41 103.125L755.961 102.758L756.514 103.121L774.281 114.8L792.049 103.121L792.602 102.758L793.152 103.125L810.438 114.65V107.609L810.883 107.312L829.723 94.749L830.273 94.3818L830.826 94.7451L848.594 106.424L866.361 94.7451L866.914 94.3818L867.465 94.749L884.75 106.275V99.2334L885.195 98.9365L904.035 86.374L904.586 86.0068L905.139 86.3701L922.906 98.0488L940.674 86.3701L941.227 86.0068L941.777 86.374L959.062 97.8994V90.8584L959.508 90.5615L978.348 77.998L978.898 77.6309L979.451 77.9951L997.219 89.6729L1014.99 77.9951L1015.54 77.6309L1016.09 77.998L1033.38 89.5244V82.4834L1033.82 82.1865L1052.66 69.623L1053.21 69.2559L1053.76 69.6191L1071.53 81.2979L1089.3 69.6191L1089.85 69.2559L1090.4 69.623L1107.69 81.1494V74.1074L1108.13 73.8105L1126.97 61.2471L1127.52 60.8799L1128.08 61.2441ZM384.951 169.602L394.687 176H391.046L384.395 171.628L377.553 176H373.84L383.864 169.594L384.41 169.245L384.951 169.602ZM421.573 169.594L431.598 176H427.885L421.043 171.628L414.392 176H410.751L420.486 169.602L421.027 169.245L421.573 169.594ZM682.201 174.312L684.769 176H678.573L681.098 174.316L681.648 173.948L682.201 174.312ZM718.84 174.316L721.365 176H715.169L717.736 174.312L718.289 173.948L718.84 174.316ZM756.514 165.937L771.824 176H768.184L755.969 167.972L743.929 176H740.325L755.41 165.94L755.961 165.573L756.514 165.937ZM793.152 165.94L808.238 176H804.634L792.594 167.972L780.38 176H776.738L792.049 165.937L792.602 165.573L793.152 165.94ZM1128.08 124.06L1140 131.896V134.289L1127.53 126.094L1109.69 137.992V159.712L1126.99 148.655L1127.54 148.307L1128.08 148.662L1140 156.499V158.893L1127.52 150.689L1109.69 162.085V168.913H1140V170.913H1109.69V176H1107.69V170.46L1089.86 159.064L1072.08 170.749L1071.53 171.11L1070.98 170.749L1053.21 159.064L1035.38 170.46V176H1033.38V154.743L1015.53 142.845L997.769 154.521L997.219 154.883L996.67 154.521L978.906 142.845L961.062 154.743V176H959.062V163.119L941.219 151.221L923.456 162.897L922.906 163.258L922.357 162.897L904.594 151.221L886.75 163.119V176H884.75V171.494L866.905 159.596L849.144 171.272L848.594 171.634L848.045 171.272L830.281 159.596L812.438 171.494V176H810.438V170.425L810.883 170.128L829.723 157.565L830.273 157.198L830.826 157.562L848.594 169.24L866.361 157.562L866.914 157.198L867.465 157.565L884.75 169.091V162.05L885.195 161.753L904.035 149.189L904.586 148.822L905.139 149.186L922.906 160.864L940.674 149.186L941.227 148.822L941.777 149.189L959.062 160.716V153.674L959.508 153.377L978.348 140.814L978.898 140.447L979.451 140.811L997.219 152.489L1014.99 140.811L1015.54 140.447L1016.09 140.814L1033.38 152.34V145.299L1033.82 145.002L1052.66 132.438L1053.21 132.071L1053.76 132.436L1071.53 144.113L1089.3 132.436L1089.85 132.071L1090.4 132.438L1107.69 143.965V136.924L1108.13 136.627L1126.97 124.063L1127.52 123.696L1128.08 124.06ZM905.139 173.789L908.502 176H904.863L904.582 175.815L904.293 176H900.581L904.052 173.782L904.598 173.433L905.139 173.789ZM941.762 173.782L945.232 176H941.52L941.23 175.815L940.949 176H937.311L940.674 173.789L941.215 173.433L941.762 173.782ZM979.451 165.413L995.558 176H991.917L978.895 167.44L965.5 176H961.787L978.364 165.406L978.91 165.058L979.451 165.413ZM1016.07 165.406L1032.65 176H1028.94L1015.54 167.44L1002.52 176H998.88L1014.99 165.413L1015.53 165.058L1016.07 165.406ZM551.893 166.562L551.344 166.922L550.795 166.562L533.02 154.877L515.188 166.272V173.102H587.5V166.272L569.668 154.877L551.893 166.562ZM589.5 173.102H661.812V166.726H589.5V173.102ZM477.58 150.334L477.031 150.695L476.482 150.334L458.719 138.657L440.875 150.556V172.275L458.177 161.219L458.723 160.87L459.264 161.226L477.031 172.904L494.799 161.226L495.34 160.87L495.886 161.219L513.188 172.275V150.556L495.344 138.657L477.58 150.334ZM69.3125 168.913H141.625V162.538H69.3125V168.913ZM1072.08 146.146L1071.53 146.507L1070.98 146.146L1053.22 134.47L1035.38 146.368V168.087L1052.68 157.031L1053.22 156.682L1053.76 157.038L1071.53 168.717L1089.3 157.038L1089.84 156.682L1090.39 157.031L1107.69 168.087V146.368L1089.84 134.47L1072.08 146.146ZM626.205 158.186L625.656 158.547L625.107 158.186L607.332 146.502L589.5 157.896V164.726H661.812V157.896L643.98 146.502L626.205 158.186ZM663.812 164.726H736.125V158.351H663.812V164.726ZM551.893 141.958L551.344 142.319L550.795 141.958L533.031 130.282L515.188 142.181V163.899L532.489 152.844L533.035 152.494L533.576 152.851L551.344 164.528L569.111 152.851L569.652 152.494L570.199 152.844L587.5 163.899V142.181L569.656 130.282L551.893 141.958ZM106.018 153.998L105.469 154.359L104.92 153.998L87.1445 142.314L69.3125 153.709V160.538H141.625V153.709L123.792 142.314L106.018 153.998ZM143.625 160.538H215.938V154.162H143.625V160.538ZM700.519 149.811L699.969 150.172L699.42 149.811L681.645 138.126L663.812 149.521V156.351H736.125V149.521L718.293 138.126L700.519 149.811ZM738.125 156.351H810.438V149.975H738.125V156.351ZM626.205 133.583L625.656 133.944L625.107 133.583L607.344 121.906L589.5 133.805V155.524L606.802 144.468L607.348 144.119L607.889 144.475L625.656 156.153L643.424 144.475L643.965 144.119L644.512 144.468L661.812 155.524V133.805L643.968 121.906L626.205 133.583ZM180.33 145.623L179.781 145.983L179.232 145.623L161.456 133.938L143.625 145.334V152.162H215.938V145.334L198.105 133.938L180.33 145.623ZM217.938 152.162H290.25V145.787H217.938V152.162ZM106.018 129.396L105.469 129.756L104.92 129.396L87.1553 117.719L69.3125 129.617V151.337L86.6143 140.28L87.1602 139.931L87.7012 140.287L105.469 151.966L123.236 140.287L123.777 139.931L124.323 140.28L141.625 151.337V129.617L123.781 117.719L106.018 129.396ZM774.831 141.435L774.281 141.796L773.732 141.435L755.957 129.751L738.125 141.146V147.975H810.438V141.146L792.605 129.751L774.831 141.435ZM812.438 147.975H884.75V141.6H812.438V147.975ZM700.519 125.207L699.969 125.568L699.42 125.207L681.656 113.531L663.812 125.43V147.148L681.114 136.093L681.66 135.743L682.201 136.1L699.969 147.777L717.736 136.1L718.277 135.743L718.824 136.093L736.125 147.148V125.43L718.281 113.531L700.519 125.207ZM254.643 137.247L254.094 137.608L253.545 137.247L235.77 125.563L217.938 136.958V143.787H290.25V136.958L272.417 125.563L254.643 137.247ZM292.25 143.787H364.562V137.411H292.25V143.787ZM180.33 121.02L179.781 121.381L179.232 121.02L161.468 109.344L143.625 121.242V142.961L160.927 131.904L161.473 131.556L162.014 131.912L179.781 143.59L197.549 131.912L198.09 131.556L198.636 131.904L215.938 142.961V121.242L198.094 109.344L180.33 121.02ZM849.144 133.06L848.594 133.421L848.045 133.06L830.27 121.375L812.438 132.771V139.6H884.75V132.771L866.918 121.375L849.144 133.06ZM886.75 139.6H959.062V133.224H886.75V139.6ZM774.831 116.832L774.281 117.193L773.732 116.832L755.969 105.155L738.125 117.054V138.773L755.427 127.717L755.973 127.368L756.514 127.724L774.281 139.402L792.049 127.724L792.59 127.368L793.137 127.717L810.438 138.773V117.054L792.593 105.155L774.831 116.832ZM328.955 128.872L328.406 129.232L327.857 128.872L310.082 117.188L292.25 128.583V135.411H364.562V128.583L346.73 117.188L328.955 128.872ZM366.562 135.411H438.875V129.036H366.562V135.411ZM254.643 112.645L254.094 113.005L253.545 112.645L235.78 100.968L217.938 112.866V134.586L235.239 123.529L235.785 123.181L236.326 123.536L254.094 135.215L271.861 123.536L272.402 123.181L272.948 123.529L290.25 134.586V112.866L272.406 100.968L254.643 112.645ZM923.456 124.684L922.906 125.045L922.357 124.684L904.582 113L886.75 124.396V131.224H959.062V124.396L941.23 113L923.456 124.684ZM961.062 131.224H1033.38V124.849H961.062V131.224ZM849.144 108.457L848.594 108.817L848.045 108.457L830.281 96.7803L812.438 108.679V130.397L829.739 119.342L830.285 118.992L830.826 119.349L848.594 131.027L866.361 119.349L866.902 118.992L867.449 119.342L884.75 130.397V108.679L866.906 96.7803L849.144 108.457ZM403.268 120.496L402.719 120.857L402.17 120.496L384.395 108.812L366.562 120.207V127.036H438.875V120.207L421.043 108.812L403.268 120.496ZM440.875 127.036H513.188V120.661H440.875V127.036ZM328.955 104.269L328.406 104.63L327.857 104.269L310.094 92.5928L292.25 104.491V126.21L309.552 115.153L310.098 114.805L310.639 115.161L328.406 126.839L346.174 115.161L346.715 114.805L347.261 115.153L364.562 126.21V104.491L346.719 92.5928L328.955 104.269ZM997.769 116.309L997.219 116.67L996.67 116.309L978.895 104.624L961.062 116.02V122.849H1033.38V116.02L1015.54 104.624L997.769 116.309ZM1035.38 122.849H1107.69V116.473H1035.38V122.849ZM923.456 100.081L922.906 100.442L922.357 100.081L904.594 88.4043L886.75 100.303V122.022L904.052 110.966L904.598 110.617L905.139 110.973L922.906 122.651L940.674 110.973L941.215 110.617L941.762 110.966L959.062 122.022V100.303L941.218 88.4043L923.456 100.081ZM477.58 112.121L477.031 112.481L476.482 112.121L458.707 100.437L440.875 111.832V118.661H513.188V111.832L495.355 100.437L477.58 112.121ZM515.188 118.661H587.5V112.285H515.188V118.661ZM403.268 95.8936L402.719 96.2549L402.17 95.8936L384.406 84.2168L366.562 96.1152V117.835L383.864 106.778L384.41 106.43L384.951 106.785L402.719 118.464L420.486 106.785L421.027 106.43L421.573 106.778L438.875 117.835V96.1152L421.031 84.2168L403.268 95.8936ZM1035.38 7.5918H961.062V15.9678H886.75V24.3428H812.438V32.7188H738.125V41.0938H663.812V49.4697H589.5V57.8447H515.188V66.2207H440.875V74.5957H366.562V82.9707H292.25V91.3467H217.938V99.7217H143.625V108.098H69.3125V116.473H0V114.473H67.3125V108.098H0V106.098H67.3125V99.2686L49.4795 87.874L31.7051 99.5576L31.1562 99.9189L30.6074 99.5576L12.832 87.874L0 96.0732V93.7012L12.3018 85.8398L12.8477 85.4902L13.3887 85.8467L31.1562 97.5254L48.9238 85.8467L49.4648 85.4902L50.0107 85.8398L67.3125 96.8965V75.1768L49.4688 63.2783L31.7051 74.9551L31.1562 75.3154L30.6074 74.9551L12.8428 63.2783L0 71.8418V69.4395L12.2852 61.2471L12.8359 60.8799L13.3887 61.2441L31.1562 72.9219L48.9238 61.2441L49.4766 60.8799L50.0273 61.2471L67.3125 72.7734V65.7324L67.7578 65.4355L86.5977 52.8721L87.1484 52.5049L87.7012 52.8682L105.469 64.5469L123.236 52.8682L123.789 52.5049L124.34 52.8721L141.625 64.3984V57.3564L142.07 57.0596L160.91 44.4961L161.461 44.1289L162.014 44.4932L179.781 56.1709L197.549 44.4932L198.102 44.1289L198.652 44.4961L215.938 56.0225V48.9814L216.383 48.6846L235.223 36.1211L235.773 35.7539L236.326 36.1172L254.094 47.7959L271.861 36.1172L272.414 35.7539L272.965 36.1211L290.25 47.6475V40.6055L290.695 40.3086L309.535 27.7461L310.086 27.3779L310.639 27.7422L328.406 39.4199L346.174 27.7422L346.727 27.3779L347.277 27.7461L364.562 39.2715V32.2305L365.008 31.9336L383.848 19.3701L384.398 19.0029L384.951 19.3662L402.719 31.0449L420.486 19.3662L421.039 19.0029L421.59 19.3701L438.875 30.8965V23.8545L439.32 23.5576L458.16 10.9951L458.711 10.627L459.264 10.9912L477.031 22.6699L494.799 10.9912L495.352 10.627L495.902 10.9951L513.188 22.5205V15.4795L513.633 15.1826L532.473 2.61914L533.023 2.25195L533.576 2.61523L551.344 14.2939L569.111 2.61523L569.664 2.25195L570.215 2.61914L587.5 14.1455V7.10352L587.945 6.80664L598.153 0H601.757L589.5 8.17285V29.8926L606.802 18.8359L607.348 18.4873L607.889 18.8428L625.656 30.5215L643.424 18.8428L643.965 18.4873L644.512 18.8359L661.812 29.8926V8.17285L649.556 0H653.16L661.812 5.76953V0H663.812V21.5166L681.114 10.4609L681.66 10.1113L682.201 10.4678L699.969 22.1465L717.736 10.4678L718.277 10.1113L718.824 10.4609L736.125 21.5166V0H738.125V13.1416L755.427 2.08496L755.973 1.73633L756.514 2.0918L774.281 13.7705L792.049 2.0918L792.59 1.73633L793.137 2.08496L810.438 13.1416V0H812.438V4.76562L819.896 0H823.608L812.438 7.13867V13.9678H884.75V7.13867L873.579 0H877.292L884.75 4.76562V0H886.75V5.5918H959.062V0H961.062V5.5918H1033.38V0H1035.38V7.5918ZM1072.08 107.934L1071.53 108.294L1070.98 107.934L1053.21 96.249L1035.38 107.645V114.473H1107.69V107.645L1089.86 96.249L1072.08 107.934ZM997.769 91.7061L997.219 92.0664L996.67 91.7061L978.906 80.0293L961.062 91.9277V113.646L978.364 102.591L978.91 102.241L979.451 102.598L997.219 114.276L1014.99 102.598L1015.53 102.241L1016.07 102.591L1033.38 113.646V91.9277L1015.53 80.0293L997.769 91.7061ZM551.893 103.745L551.344 104.106L550.795 103.745L533.02 92.0615L515.188 103.456V110.285H587.5V103.456L569.668 92.0615L551.893 103.745ZM589.5 110.285H661.812V103.91H589.5V110.285ZM477.58 87.5176L477.031 87.8789L476.482 87.5176L458.719 75.8418L440.875 87.7402V109.459L458.177 98.4033L458.723 98.0537L459.264 98.4102L477.031 110.088L494.799 98.4102L495.34 98.0537L495.886 98.4033L513.188 109.459V87.7402L495.344 75.8418L477.58 87.5176ZM69.3125 106.098H141.625V99.7217H69.3125V106.098ZM1072.08 83.3301L1071.53 83.6914L1070.98 83.3301L1053.22 71.6533L1035.38 83.5518V105.271L1052.68 94.2148L1053.22 93.8662L1053.76 94.2217L1071.53 105.9L1089.3 94.2217L1089.84 93.8662L1090.39 94.2148L1107.69 105.271V83.5518L1089.84 71.6533L1072.08 83.3301ZM626.205 95.3701L625.656 95.7314L625.107 95.3701L607.332 83.6855L589.5 95.0811V101.91H661.812V95.0811L643.98 83.6855L626.205 95.3701ZM663.812 101.91H736.125V95.5342H663.812V101.91ZM551.893 79.1426L551.344 79.5039L550.795 79.1426L533.031 67.4658L515.188 79.3643V101.084L532.489 90.0273L533.035 89.6787L533.576 90.0342L551.344 101.713L569.111 90.0342L569.652 89.6787L570.199 90.0273L587.5 101.084V79.3643L569.655 67.4658L551.893 79.1426ZM106.018 91.1826L105.469 91.543L104.92 91.1826L87.1436 79.498L69.3125 90.8936V97.7217H141.625V90.8936L123.793 79.498L106.018 91.1826ZM143.625 97.7217H215.938V91.3467H143.625V97.7217ZM700.519 86.9941L699.969 87.3555L699.42 86.9941L681.645 75.3105L663.812 86.7061V93.5342H736.125V86.7061L718.293 75.3105L700.519 86.9941ZM738.125 93.5342H810.438V87.1592H738.125V93.5342ZM626.205 70.7666L625.656 71.1279L625.107 70.7666L607.344 59.0908L589.5 70.9893V92.708L606.802 81.6523L607.348 81.3027L607.889 81.6592L625.656 93.3369L643.424 81.6592L643.965 81.3027L644.512 81.6523L661.812 92.708V70.9893L643.969 59.0908L626.205 70.7666ZM180.33 82.8066L179.781 83.168L179.232 82.8066L161.457 71.123L143.625 82.5176V89.3467H215.938V82.5176L198.104 71.123L180.33 82.8066ZM217.938 89.3467H290.25V82.9707H217.938V89.3467ZM106.018 66.5791L105.469 66.9404L104.92 66.5791L87.1553 54.9033L69.3125 66.8018V88.5205L86.6143 77.4639L87.1602 77.1152L87.7012 77.4717L105.469 89.1494L123.236 77.4717L123.777 77.1152L124.323 77.4639L141.625 88.5205V66.8018L123.781 54.9033L106.018 66.5791ZM774.831 78.6191L774.281 78.9805L773.732 78.6191L755.957 66.9346L738.125 78.3301V85.1592H810.438V78.3301L792.605 66.9346L774.831 78.6191ZM812.438 85.1592H884.75V78.7832H812.438V85.1592ZM700.519 62.3916L699.969 62.7529L699.42 62.3916L681.656 50.7148L663.812 62.6133V84.333L681.114 73.2764L681.66 72.9277L682.201 73.2832L699.969 84.9619L717.736 73.2832L718.277 72.9277L718.824 73.2764L736.125 84.333V62.6133L718.28 50.7148L700.519 62.3916ZM254.643 74.4316L254.094 74.792L253.545 74.4316L235.769 62.7471L217.938 74.1426V80.9707H290.25V74.1426L272.418 62.7471L254.643 74.4316ZM292.25 80.9707H364.562V74.5957H292.25V80.9707ZM180.33 58.2041L179.781 58.5645L179.232 58.2041L161.468 46.5273L143.625 58.4258V80.1455L160.927 69.0889L161.473 68.7402L162.014 69.0957L179.781 80.7744L197.549 69.0957L198.09 68.7402L198.636 69.0889L215.938 80.1455V58.4258L198.094 46.5273L180.33 58.2041ZM849.144 70.2432L848.594 70.6045L848.045 70.2432L830.27 58.5596L812.438 69.9551V76.7832H884.75V69.9551L866.918 58.5596L849.144 70.2432ZM886.75 76.7832H959.062V70.4082H886.75V76.7832ZM774.831 54.0166L774.281 54.377L773.732 54.0166L755.969 42.3398L738.125 54.2383V75.957L755.427 64.9014L755.973 64.5518L756.514 64.9082L774.281 76.5869L792.049 64.9082L792.59 64.5518L793.137 64.9014L810.438 75.957V54.2383L792.594 42.3398L774.831 54.0166ZM328.955 66.0557L328.406 66.417L327.857 66.0557L310.082 54.3721L292.25 65.7666V72.5957H364.562V65.7666L346.73 54.3721L328.955 66.0557ZM366.562 72.5957H438.875V66.2207H366.562V72.5957ZM254.643 49.8281L254.094 50.1895L253.545 49.8281L235.78 38.1523L217.938 50.0508V71.7695L235.239 60.7129L235.785 60.3643L236.326 60.7207L254.094 72.3984L271.861 60.7207L272.402 60.3643L272.948 60.7129L290.25 71.7695V50.0508L272.406 38.1523L254.643 49.8281ZM923.456 61.8682L922.906 62.2295L922.357 61.8682L904.582 50.1836L886.75 61.5791V68.4082H959.062V61.5791L941.23 50.1836L923.456 61.8682ZM961.062 68.4082H1033.38V62.0322H961.062V68.4082ZM849.144 45.6406L848.594 46.002L848.045 45.6406L830.281 33.9639L812.438 45.8623V67.582L829.739 56.5254L830.285 56.1768L830.826 56.5322L848.594 68.2109L866.361 56.5322L866.902 56.1768L867.449 56.5254L884.75 67.582V45.8623L866.905 33.9639L849.144 45.6406ZM403.268 57.6807L402.719 58.041L402.17 57.6807L384.395 45.9961L366.562 57.3916V64.2207H438.875V57.3916L421.043 45.9961L403.268 57.6807ZM440.875 64.2207H513.188V57.8447H440.875V64.2207ZM328.955 41.4531L328.406 41.8145L327.857 41.4531L310.094 29.7764L292.25 41.6748V63.3945L309.552 52.3379L310.098 51.9893L310.639 52.3447L328.406 64.0234L346.174 52.3447L346.715 51.9893L347.261 52.3379L364.562 63.3945V41.6748L346.719 29.7764L328.955 41.4531ZM997.769 53.4932L997.219 53.8535L996.67 53.4932L978.895 41.8086L961.062 53.2041V60.0322H1033.38V53.2041L1015.54 41.8086L997.769 53.4932ZM1035.38 60.0322H1107.69V53.6572H1035.38V60.0322ZM923.456 37.2656L922.906 37.626L922.357 37.2656L904.594 25.5889L886.75 37.4873V59.2061L904.052 48.1504L904.598 47.8008L905.139 48.1572L922.906 59.8359L940.674 48.1572L941.215 47.8008L941.762 48.1504L959.062 59.2061V37.4873L941.219 25.5889L923.456 37.2656ZM477.58 49.3047L477.031 49.666L476.482 49.3047L458.707 37.6211L440.875 49.0156V55.8447H513.188V49.0156L495.355 37.6211L477.58 49.3047ZM515.188 55.8447H587.5V49.4697H515.188V55.8447ZM403.268 33.0771L402.719 33.4385L402.17 33.0771L384.406 21.4014L366.562 33.2998V55.0186L383.864 43.9629L384.41 43.6133L384.951 43.9697L402.719 55.6475L420.486 43.9697L421.027 43.6133L421.573 43.9629L438.875 55.0186V33.2998L421.031 21.4014L403.268 33.0771ZM515.188 3.4043H440.875V11.7803H366.562V20.1553H292.25V28.5303H217.938V36.9062H143.625V45.2812H69.3125V53.6572H0V51.6572H67.3125V45.2812H0V43.2812H67.3125V36.4531L49.4805 25.0576L31.7051 36.7422L31.1562 37.1025L30.6074 36.7422L12.8311 25.0576L0 33.2578V30.8848L12.3018 23.0234L12.8477 22.6748L13.3887 23.0312L31.1562 34.709L48.9238 23.0312L49.4648 22.6748L50.0107 23.0234L67.3125 34.0801V12.3613L49.4688 0.462891L31.7051 12.1387L31.1562 12.5L30.6074 12.1387L12.8428 0.462891L0 9.02637V6.62402L9.93359 0H15.7803L31.1562 10.1064L46.5322 0H52.3789L67.3125 9.95801V2.91602L67.7578 2.61914L71.6855 0H75.2891L69.3125 3.98535V25.7051L86.6143 14.6484L87.1602 14.2998L87.7012 14.6553L105.469 26.334L123.236 14.6553L123.777 14.2998L124.323 14.6484L141.625 25.7051V3.98535L135.648 0H139.253L141.625 1.58203V0H143.625V17.3291L160.927 6.27246L161.473 5.92383L162.014 6.28027L179.781 17.958L197.549 6.28027L198.09 5.92383L198.636 6.27246L215.938 17.3291V0H217.938V8.9541L231.949 0H235.661L217.938 11.3262V18.1553H290.25V11.3262L272.525 0H276.238L290.25 8.9541V0H292.25V0.578125L293.154 0H296.868L292.25 2.95117V9.78027H364.562V2.95117L359.944 0H363.658L364.562 0.578125V0H366.562V1.4043H438.875V0H440.875V1.4043H513.188V0H515.188V3.4043ZM1035.38 44.8281V51.6572H1107.69V44.8281L1089.85 33.4336L1072.08 45.1172L1071.53 45.4785L1070.98 45.1172L1053.21 33.4326L1035.38 44.8281ZM997.769 28.8896L997.219 29.251L996.67 28.8896L978.906 17.2129L961.062 29.1113V50.8311L978.364 39.7744L978.91 39.4258L979.451 39.7812L997.219 51.46L1014.99 39.7812L1015.53 39.4258L1016.07 39.7744L1033.38 50.8311V29.1113L1015.53 17.2129L997.769 28.8896ZM551.893 40.9297L551.344 41.291L550.795 40.9297L533.02 29.2451L515.188 40.6406V47.4697H587.5V40.6406L569.668 29.2451L551.893 40.9297ZM589.5 47.4697H661.812V41.0938H589.5V47.4697ZM477.58 24.7021L477.031 25.0635L476.482 24.7021L458.719 13.0254L440.875 24.9238V46.6436L458.177 35.5869L458.723 35.2383L459.264 35.5938L477.031 47.2725L494.799 35.5938L495.34 35.2383L495.886 35.5869L513.188 46.6436V24.9238L495.343 13.0254L477.58 24.7021ZM69.3125 43.2812H141.625V36.9062H69.3125V43.2812ZM1072.08 20.5146L1071.53 20.875L1070.98 20.5146L1053.22 8.83789L1035.38 20.7363V42.4561L1052.68 31.3994L1053.22 31.0498L1053.76 31.4062L1071.53 43.085L1089.3 31.4062L1089.84 31.0498L1090.39 31.3994L1107.69 42.4561V20.7363L1089.84 8.83789L1072.08 20.5146ZM626.205 32.5537L625.656 32.915L625.107 32.5537L607.332 20.8701L589.5 32.2656V39.0938H661.812V32.2656L643.98 20.8701L626.205 32.5537ZM663.812 39.0938H736.125V32.7188H663.812V39.0938ZM551.893 16.3262L551.344 16.6875L550.795 16.3262L533.031 4.65039L515.188 16.5488V38.2676L532.489 27.2119L533.035 26.8623L533.576 27.2188L551.344 38.8965L569.111 27.2188L569.652 26.8623L570.199 27.2119L587.5 38.2676V16.5488L569.656 4.65039L551.893 16.3262ZM106.018 28.3662L105.469 28.7275L104.92 28.3662L87.1445 16.6826L69.3125 28.0771V34.9062H141.625V28.0771L123.792 16.6826L106.018 28.3662ZM143.625 34.9062H215.938V28.5303H143.625V34.9062ZM700.519 24.1787L699.969 24.54L699.42 24.1787L681.645 12.4941L663.812 23.8896V30.7188H736.125V23.8896L718.293 12.4941L700.519 24.1787ZM738.125 30.7188H810.438V24.3428H738.125V30.7188ZM180.33 19.9912L179.781 20.3516L179.232 19.9912L161.456 8.30664L143.625 19.7021V26.5303H215.938V19.7021L198.105 8.30664L180.33 19.9912ZM217.938 26.5303H290.25V20.1553H217.938V26.5303ZM774.831 15.8027L774.281 16.1641L773.732 15.8027L755.957 4.11914L738.125 15.5146V22.3428H810.438V15.5146L792.605 4.11914L774.831 15.8027ZM812.438 22.3428H884.75V15.9678H812.438V22.3428ZM292.25 18.1553H364.562V11.7803H292.25V18.1553ZM886.75 13.9678H959.062V7.5918H886.75V13.9678ZM254.643 11.6152L254.094 11.9766L253.545 11.6152L235.873 0H239.515L254.094 9.58301L268.673 0H272.314L254.643 11.6152ZM366.562 9.78027H438.875V3.4043H366.562V9.78027ZM626.205 7.95117L625.656 8.3125L625.107 7.95117L613.012 0H616.651L625.656 5.91895L634.661 0H638.301L626.205 7.95117ZM849.144 7.42773L848.594 7.78906L848.045 7.42773L836.745 0H840.385L848.594 5.39551L856.803 0H860.442L849.144 7.42773ZM106.018 3.76367L105.469 4.12402L104.92 3.76367L99.1943 0H102.836L105.469 1.73047L108.102 0H111.743L106.018 3.76367ZM328.955 3.24023L328.406 3.60059L327.857 3.24023L322.928 0H326.569L328.406 1.20703L330.243 0H333.885L328.955 3.24023Z" fill="white"/>
</svg>
