<svg width="120" height="98" viewBox="0 0 120 98" fill="none" xmlns="http://www.w3.org/2000/svg">
<path d="M56 14C59.3137 14 62 16.6863 62 20V43.083L84.6689 20.4141C87.012 18.0713 90.8112 18.0712 93.1543 20.4141L105.883 33.1426C108.225 35.4857 108.226 39.2849 105.883 41.6279L83.5107 64H106.026C109.357 64.0001 112 66.7035 112 70V88C112 91.3137 109.314 94 106 94H38C34.6863 94 32 91.3137 32 88V20C32 16.6863 34.6863 14 38 14H56ZM37.9883 68C36.8916 68 36 68.8875 36 70V88C36 89.1046 36.8954 90 38 90H106C107.105 90 108 89.1046 108 88V70C108 68.8783 107.114 68.0001 106.026 68H37.9883ZM48 72C51.866 72 55 75.134 55 79C55 82.866 51.866 86 48 86C44.134 86 41 82.866 41 79C41 75.134 44.134 72 48 72ZM48 76C46.3431 76 45 77.3431 45 79C45 80.6569 46.3431 82 48 82C49.6569 82 51 80.6569 51 79C51 77.3431 49.6569 76 48 76ZM36 64.3389C36.6215 64.1202 37.2902 64 37.9883 64H41.083L58 47.083V43H36V64.3389ZM46.7402 64H63.6855L55.2129 55.5273L46.7402 64ZM58.042 52.6992L69.3428 64H77.8525L86.9111 54.9414L71.3555 39.3857L58.042 52.6992ZM90.3262 23.2422C89.5453 22.4616 88.2791 22.4619 87.498 23.2422L74.1836 36.5566L89.7402 52.1133L103.054 38.7988C103.834 38.0178 103.834 36.7517 103.054 35.9707L90.3262 23.2422ZM38 18C36.8954 18 36 18.8954 36 20V39H58V20C58 18.8954 57.1046 18 56 18H38Z" fill="#1F1E1E"/>
<circle cx="27" cy="27" r="25" fill="#EDF1F4" stroke="#FFD900" stroke-width="4"/>
<path d="M29.0002 14C35.0752 14.0001 40.0002 18.9249 40.0002 25C40.0002 31.0751 35.0752 35.9999 29.0002 36C27.0751 36 25.2665 35.5036 23.6925 34.6348L17.4142 40.9141C16.6332 41.6951 15.3671 41.695 14.5861 40.9141C13.805 40.133 13.805 38.867 14.5861 38.0859L20.5871 32.084C18.9738 30.17 18.0002 27.6992 18.0002 25C18.0002 18.9249 22.925 14 29.0002 14ZM29.0002 18C25.1342 18 22.0002 21.134 22.0002 25C22.0002 28.866 25.1342 32 29.0002 32C32.8661 31.9999 36.0002 28.8659 36.0002 25C36.0002 21.1341 32.8661 18.0001 29.0002 18Z" fill="#1F1E1E"/>
</svg>
